<svg xmlns:xlink="http://www.w3.org/1999/xlink" xmlns="http://www.w3.org/2000/svg" width="396pt" height="252pt" viewBox="0 0 396 252" version="1.1">
 <metadata>
  <rdf:RDF xmlns:dc="http://purl.org/dc/elements/1.1/" xmlns:cc="http://creativecommons.org/ns#" xmlns:rdf="http://www.w3.org/1999/02/22-rdf-syntax-ns#">
   <cc:Work>
    <dc:type rdf:resource="http://purl.org/dc/dcmitype/StillImage"/>
    <dc:date>2025-09-15T13:19:57.446417</dc:date>
    <dc:format>image/svg+xml</dc:format>
    <dc:creator>
     <cc:Agent>
      <dc:title>Matplotlib v3.10.6, https://matplotlib.org/</dc:title>
     </cc:Agent>
    </dc:creator>
   </cc:Work>
  </rdf:RDF>
 </metadata>
 <defs>
  <style type="text/css">*{stroke-linejoin: round; stroke-linecap: butt}</style>
 </defs>
 <g id="figure_1">
  <g id="patch_1">
   <path d="M 0 252  L 396 252  L 396 0  L 0 0  z " style="fill: #ffffff"/>
  </g>
  <g id="patch_2">
   <path d="M 0 252  L 396 252  L 396 0  L 0 0  L 0 252  z " style="fill: none; stroke: #ffffff; stroke-linejoin: miter"/>
  </g>
  <g id="axes_1">
   <g id="patch_3">
    <path d="M 44.524047 219.967312  L 316.066719 219.967312  L 316.066719 3.96  L 44.524047 3.96  z " style="fill: #ebebeb"/>
   </g>
   <g id="matplotlib.axis_1">
    <g id="xtick_1">
     <g id="line2d_1">
      <path d="M 64.405559 219.967312  L 64.405559 3.96  " clip-path="url(#p3f34f20632)" style="fill: none; stroke: #ffffff; stroke-linecap: square"/>
     </g>
     <g id="line2d_2">
      <path d="M 64.405559 219.967312  " style="fill: none; stroke: #333333; stroke-width: 1.5; stroke-linecap: square"/>
      <defs>
       <path id="m27637da7ea" d="M 0 0  L 0 2.75  " style="stroke: #333333"/>
      </defs>
      <g>
       <use xlink:href="#m27637da7ea" x="64.405559" y="219.967312" style="fill: #333333; stroke: #333333"/>
      </g>
     </g>
     <g id="text_1">
      <!-- 1000 -->
      <g style="fill: #4d4d4d" transform="translate(53.207559 231.603938) scale(0.088 -0.088)">
       <defs>
        <path id="DejaVuSans-31" d="M 794 531  L 1825 531  L 1825 4091  L 703 3866  L 703 4441  L 1819 4666  L 2450 4666  L 2450 531  L 3481 531  L 3481 0  L 794 0  L 794 531  z " transform="scale(0.015625)"/>
        <path id="DejaVuSans-30" d="M 2034 4250  Q 1547 4250 1301 3770  Q 1056 3291 1056 2328  Q 1056 1369 1301 889  Q 1547 409 2034 409  Q 2525 409 2770 889  Q 3016 1369 3016 2328  Q 3016 3291 2770 3770  Q 2525 4250 2034 4250  z M 2034 4750  Q 2819 4750 3233 4129  Q 3647 3509 3647 2328  Q 3647 1150 3233 529  Q 2819 -91 2034 -91  Q 1250 -91 836 529  Q 422 1150 422 2328  Q 422 3509 836 4129  Q 1250 4750 2034 4750  z " transform="scale(0.015625)"/>
       </defs>
       <use xlink:href="#DejaVuSans-31"/>
       <use xlink:href="#DejaVuSans-30" transform="translate(63.623047 0)"/>
       <use xlink:href="#DejaVuSans-30" transform="translate(127.246094 0)"/>
       <use xlink:href="#DejaVuSans-30" transform="translate(190.869141 0)"/>
      </g>
     </g>
    </g>
    <g id="xtick_2">
     <g id="line2d_3">
      <path d="M 132.938867 219.967312  L 132.938867 3.96  " clip-path="url(#p3f34f20632)" style="fill: none; stroke: #ffffff; stroke-linecap: square"/>
     </g>
     <g id="line2d_4">
      <path d="M 132.938867 219.967312  " style="fill: none; stroke: #333333; stroke-width: 1.5; stroke-linecap: square"/>
      <g>
       <use xlink:href="#m27637da7ea" x="132.938867" y="219.967312" style="fill: #333333; stroke: #333333"/>
      </g>
     </g>
     <g id="text_2">
      <!-- 1500 -->
      <g style="fill: #4d4d4d" transform="translate(121.740867 231.603938) scale(0.088 -0.088)">
       <defs>
        <path id="DejaVuSans-35" d="M 691 4666  L 3169 4666  L 3169 4134  L 1269 4134  L 1269 2991  Q 1406 3038 1543 3061  Q 1681 3084 1819 3084  Q 2600 3084 3056 2656  Q 3513 2228 3513 1497  Q 3513 744 3044 326  Q 2575 -91 1722 -91  Q 1428 -91 1123 -41  Q 819 9 494 109  L 494 744  Q 775 591 1075 516  Q 1375 441 1709 441  Q 2250 441 2565 725  Q 2881 1009 2881 1497  Q 2881 1984 2565 2268  Q 2250 2553 1709 2553  Q 1456 2553 1204 2497  Q 953 2441 691 2322  L 691 4666  z " transform="scale(0.015625)"/>
       </defs>
       <use xlink:href="#DejaVuSans-31"/>
       <use xlink:href="#DejaVuSans-35" transform="translate(63.623047 0)"/>
       <use xlink:href="#DejaVuSans-30" transform="translate(127.246094 0)"/>
       <use xlink:href="#DejaVuSans-30" transform="translate(190.869141 0)"/>
      </g>
     </g>
    </g>
    <g id="xtick_3">
     <g id="line2d_5">
      <path d="M 201.472175 219.967312  L 201.472175 3.96  " clip-path="url(#p3f34f20632)" style="fill: none; stroke: #ffffff; stroke-linecap: square"/>
     </g>
     <g id="line2d_6">
      <path d="M 201.472175 219.967312  " style="fill: none; stroke: #333333; stroke-width: 1.5; stroke-linecap: square"/>
      <g>
       <use xlink:href="#m27637da7ea" x="201.472175" y="219.967312" style="fill: #333333; stroke: #333333"/>
      </g>
     </g>
     <g id="text_3">
      <!-- 2000 -->
      <g style="fill: #4d4d4d" transform="translate(190.274175 231.603938) scale(0.088 -0.088)">
       <defs>
        <path id="DejaVuSans-32" d="M 1228 531  L 3431 531  L 3431 0  L 469 0  L 469 531  Q 828 903 1448 1529  Q 2069 2156 2228 2338  Q 2531 2678 2651 2914  Q 2772 3150 2772 3378  Q 2772 3750 2511 3984  Q 2250 4219 1831 4219  Q 1534 4219 1204 4116  Q 875 4013 500 3803  L 500 4441  Q 881 4594 1212 4672  Q 1544 4750 1819 4750  Q 2544 4750 2975 4387  Q 3406 4025 3406 3419  Q 3406 3131 3298 2873  Q 3191 2616 2906 2266  Q 2828 2175 2409 1742  Q 1991 1309 1228 531  z " transform="scale(0.015625)"/>
       </defs>
       <use xlink:href="#DejaVuSans-32"/>
       <use xlink:href="#DejaVuSans-30" transform="translate(63.623047 0)"/>
       <use xlink:href="#DejaVuSans-30" transform="translate(127.246094 0)"/>
       <use xlink:href="#DejaVuSans-30" transform="translate(190.869141 0)"/>
      </g>
     </g>
    </g>
    <g id="xtick_4">
     <g id="line2d_7">
      <path d="M 270.005483 219.967312  L 270.005483 3.96  " clip-path="url(#p3f34f20632)" style="fill: none; stroke: #ffffff; stroke-linecap: square"/>
     </g>
     <g id="line2d_8">
      <path d="M 270.005483 219.967312  " style="fill: none; stroke: #333333; stroke-width: 1.5; stroke-linecap: square"/>
      <g>
       <use xlink:href="#m27637da7ea" x="270.005483" y="219.967312" style="fill: #333333; stroke: #333333"/>
      </g>
     </g>
     <g id="text_4">
      <!-- 2500 -->
      <g style="fill: #4d4d4d" transform="translate(258.807483 231.603938) scale(0.088 -0.088)">
       <use xlink:href="#DejaVuSans-32"/>
       <use xlink:href="#DejaVuSans-35" transform="translate(63.623047 0)"/>
       <use xlink:href="#DejaVuSans-30" transform="translate(127.246094 0)"/>
       <use xlink:href="#DejaVuSans-30" transform="translate(190.869141 0)"/>
      </g>
     </g>
    </g>
    <g id="xtick_5">
     <g id="line2d_9">
      <path d="M 98.672213 219.967312  L 98.672213 3.96  " clip-path="url(#p3f34f20632)" style="fill: none; stroke: #ffffff; stroke-width: 0.5; stroke-linecap: square"/>
     </g>
    </g>
    <g id="xtick_6">
     <g id="line2d_10">
      <path d="M 167.205521 219.967312  L 167.205521 3.96  " clip-path="url(#p3f34f20632)" style="fill: none; stroke: #ffffff; stroke-width: 0.5; stroke-linecap: square"/>
     </g>
    </g>
    <g id="xtick_7">
     <g id="line2d_11">
      <path d="M 235.738829 219.967312  L 235.738829 3.96  " clip-path="url(#p3f34f20632)" style="fill: none; stroke: #ffffff; stroke-width: 0.5; stroke-linecap: square"/>
     </g>
    </g>
    <g id="xtick_8">
     <g id="line2d_12">
      <path d="M 304.272136 219.967312  L 304.272136 3.96  " clip-path="url(#p3f34f20632)" style="fill: none; stroke: #ffffff; stroke-width: 0.5; stroke-linecap: square"/>
     </g>
    </g>
   </g>
   <g id="matplotlib.axis_2">
    <g id="ytick_1">
     <g id="line2d_13">
      <path d="M 44.524047 166.13477  L 316.066719 166.13477  " clip-path="url(#p3f34f20632)" style="fill: none; stroke: #ffffff; stroke-linecap: square"/>
     </g>
     <g id="line2d_14">
      <path d="M 44.524047 166.13477  " style="fill: none; stroke: #333333; stroke-width: 1.5; stroke-linecap: square"/>
      <defs>
       <path id="mb9f184676a" d="M 0 0  L -2.75 0  " style="stroke: #333333"/>
      </defs>
      <g>
       <use xlink:href="#mb9f184676a" x="44.524047" y="166.13477" style="fill: #333333; stroke: #333333"/>
      </g>
     </g>
     <g id="text_5">
      <!-- 5 -->
      <g style="fill: #4d4d4d" transform="translate(33.975047 169.478083) scale(0.088 -0.088)">
       <use xlink:href="#DejaVuSans-35"/>
      </g>
     </g>
    </g>
    <g id="ytick_2">
     <g id="line2d_15">
      <path d="M 44.524047 81.492406  L 316.066719 81.492406  " clip-path="url(#p3f34f20632)" style="fill: none; stroke: #ffffff; stroke-linecap: square"/>
     </g>
     <g id="line2d_16">
      <path d="M 44.524047 81.492406  " style="fill: none; stroke: #333333; stroke-width: 1.5; stroke-linecap: square"/>
      <g>
       <use xlink:href="#mb9f184676a" x="44.524047" y="81.492406" style="fill: #333333; stroke: #333333"/>
      </g>
     </g>
     <g id="text_6">
      <!-- 10 -->
      <g style="fill: #4d4d4d" transform="translate(28.376047 84.835718) scale(0.088 -0.088)">
       <use xlink:href="#DejaVuSans-31"/>
       <use xlink:href="#DejaVuSans-30" transform="translate(63.623047 0)"/>
      </g>
     </g>
    </g>
    <g id="ytick_3">
     <g id="line2d_17">
      <path d="M 44.524047 208.455953  L 316.066719 208.455953  " clip-path="url(#p3f34f20632)" style="fill: none; stroke: #ffffff; stroke-width: 0.5; stroke-linecap: square"/>
     </g>
    </g>
    <g id="ytick_4">
     <g id="line2d_18">
      <path d="M 44.524047 123.813588  L 316.066719 123.813588  " clip-path="url(#p3f34f20632)" style="fill: none; stroke: #ffffff; stroke-width: 0.5; stroke-linecap: square"/>
     </g>
    </g>
    <g id="ytick_5">
     <g id="line2d_19">
      <path d="M 44.524047 39.171224  L 316.066719 39.171224  " clip-path="url(#p3f34f20632)" style="fill: none; stroke: #ffffff; stroke-width: 0.5; stroke-linecap: square"/>
     </g>
    </g>
   </g>
   <g id="PathCollection_1">
    <path d="M 170.90632 154.364443  C 171.37638 154.364443 171.827251 154.177686 172.159634 153.845303  C 172.492017 153.51292 172.678774 153.062049 172.678774 152.591989  C 172.678774 152.121928 172.492017 151.671057 172.159634 151.338675  C 171.827251 151.006292 171.37638 150.819535 170.90632 150.819535  C 170.436259 150.819535 169.985388 151.006292 169.653006 151.338675  C 169.320623 151.671057 169.133866 152.121928 169.133866 152.591989  C 169.133866 153.062049 169.320623 153.51292 169.653006 153.845303  C 169.985388 154.177686 170.436259 154.364443 170.90632 154.364443  z " clip-path="url(#p3f34f20632)" style="fill: #619cff; stroke: #619cff; stroke-width: 0.886227"/>
    <path d="M 153.910059 179.757152  C 154.38012 179.757152 154.830991 179.570395 155.163373 179.238012  C 155.495756 178.905629 155.682513 178.454758 155.682513 177.984698  C 155.682513 177.514638 155.495756 177.063767 155.163373 176.731384  C 154.830991 176.399001 154.38012 176.212244 153.910059 176.212244  C 153.439999 176.212244 152.989128 176.399001 152.656745 176.731384  C 152.324362 177.063767 152.137605 177.514638 152.137605 177.984698  C 152.137605 178.454758 152.324362 178.905629 152.656745 179.238012  C 152.989128 179.570395 153.439999 179.757152 153.910059 179.757152  z " clip-path="url(#p3f34f20632)" style="fill: #619cff; stroke: #619cff; stroke-width: 0.886227"/>
    <path d="M 160.489257 161.135833  C 160.959317 161.135833 161.410188 160.949076 161.742571 160.616694  C 162.074954 160.284311 162.261711 159.83344 162.261711 159.36338  C 162.261711 158.893319 162.074954 158.442448 161.742571 158.110065  C 161.410188 157.777683 160.959317 157.590926 160.489257 157.590926  C 160.019197 157.590926 159.568326 157.777683 159.235943 158.110065  C 158.90356 158.442448 158.716803 158.893319 158.716803 159.36338  C 158.716803 159.83344 158.90356 160.284311 159.235943 160.616694  C 159.568326 160.949076 160.019197 161.135833 160.489257 161.135833  z " clip-path="url(#p3f34f20632)" style="fill: #619cff; stroke: #619cff; stroke-width: 0.886227"/>
    <path d="M 268.634816 191.607088  C 269.104877 191.607088 269.555748 191.420331 269.888131 191.087948  C 270.220513 190.755566 270.40727 190.304694 270.40727 189.834634  C 270.40727 189.364574 270.220513 188.913703 269.888131 188.58132  C 269.555748 188.248937 269.104877 188.06218 268.634816 188.06218  C 268.164756 188.06218 267.713885 188.248937 267.381502 188.58132  C 267.04912 188.913703 266.862363 189.364574 266.862363 189.834634  C 266.862363 190.304694 267.04912 190.755566 267.381502 191.087948  C 267.713885 191.420331 268.164756 191.607088 268.634816 191.607088  z " clip-path="url(#p3f34f20632)" style="fill: #619cff; stroke: #619cff; stroke-width: 0.886227"/>
    <path d="M 141.848197 188.221392  C 142.318257 188.221392 142.769129 188.034635 143.101511 187.702252  C 143.433894 187.369869 143.620651 186.918998 143.620651 186.448938  C 143.620651 185.978878 143.433894 185.528007 143.101511 185.195624  C 142.769129 184.863241 142.318257 184.676484 141.848197 184.676484  C 141.378137 184.676484 140.927266 184.863241 140.594883 185.195624  C 140.2625 185.528007 140.075743 185.978878 140.075743 186.448938  C 140.075743 186.918998 140.2625 187.369869 140.594883 187.702252  C 140.927266 188.034635 141.378137 188.221392 141.848197 188.221392  z " clip-path="url(#p3f34f20632)" style="fill: #619cff; stroke: #619cff; stroke-width: 0.886227"/>
    <path d="M 108.952209 139.128824  C 109.42227 139.128824 109.873141 138.942067 110.205524 138.609684  C 110.537906 138.277301 110.724663 137.82643 110.724663 137.35637  C 110.724663 136.88631 110.537906 136.435439 110.205524 136.103056  C 109.873141 135.770673 109.42227 135.583916 108.952209 135.583916  C 108.482149 135.583916 108.031278 135.770673 107.698895 136.103056  C 107.366513 136.435439 107.179756 136.88631 107.179756 137.35637  C 107.179756 137.82643 107.366513 138.277301 107.698895 138.609684  C 108.031278 138.942067 108.482149 139.128824 108.952209 139.128824  z " clip-path="url(#p3f34f20632)" style="fill: #619cff; stroke: #619cff; stroke-width: 0.886227"/>
    <path d="M 253.009222 183.142852  C 253.479283 183.142852 253.930154 182.956095 254.262536 182.623712  C 254.594919 182.291329 254.781676 181.840458 254.781676 181.370398  C 254.781676 180.900337 254.594919 180.449466 254.262536 180.117084  C 253.930154 179.784701 253.479283 179.597944 253.009222 179.597944  C 252.539162 179.597944 252.088291 179.784701 251.755908 180.117084  C 251.423525 180.449466 251.236768 180.900337 251.236768 181.370398  C 251.236768 181.840458 251.423525 182.291329 251.755908 182.623712  C 252.088291 182.956095 252.539162 183.142852 253.009222 183.142852  z " clip-path="url(#p3f34f20632)" style="fill: #619cff; stroke: #619cff; stroke-width: 0.886227"/>
    <path d="M 282.067345 179.757152  C 282.537405 179.757152 282.988276 179.570395 283.320659 179.238012  C 283.653042 178.905629 283.839799 178.454758 283.839799 177.984698  C 283.839799 177.514638 283.653042 177.063767 283.320659 176.731384  C 282.988276 176.399001 282.537405 176.212244 282.067345 176.212244  C 281.597285 176.212244 281.146413 176.399001 280.814031 176.731384  C 280.481648 177.063767 280.294891 177.514638 280.294891 177.984698  C 280.294891 178.454758 280.481648 178.905629 280.814031 179.238012  C 281.146413 179.570395 281.597285 179.757152 282.067345 179.757152  z " clip-path="url(#p3f34f20632)" style="fill: #619cff; stroke: #619cff; stroke-width: 0.886227"/>
    <path d="M 269.32015 157.750142  C 269.79021 157.750142 270.241081 157.563385 270.573464 157.231002  C 270.905846 156.89862 271.092603 156.447749 271.092603 155.977688  C 271.092603 155.507628 270.905846 155.056757 270.573464 154.724374  C 270.241081 154.391991 269.79021 154.205235 269.32015 154.205235  C 268.850089 154.205235 268.399218 154.391991 268.066835 154.724374  C 267.734453 155.056757 267.547696 155.507628 267.547696 155.977688  C 267.547696 156.447749 267.734453 156.89862 268.066835 157.231002  C 268.399218 157.563385 268.850089 157.750142 269.32015 157.750142  z " clip-path="url(#p3f34f20632)" style="fill: #f8766d; stroke: #f8766d; stroke-width: 0.886227"/>
    <path d="M 141.848197 137.43597  C 142.318257 137.43597 142.769129 137.249213 143.101511 136.91683  C 143.433894 136.584447 143.620651 136.133576 143.620651 135.663516  C 143.620651 135.193456 143.433894 134.742584 143.101511 134.410202  C 142.769129 134.077819 142.318257 133.891062 141.848197 133.891062  C 141.378137 133.891062 140.927266 134.077819 140.594883 134.410202  C 140.2625 134.742584 140.075743 135.193456 140.075743 135.663516  C 140.075743 136.133576 140.2625 136.584447 140.594883 136.91683  C 140.927266 137.249213 141.378137 137.43597 141.848197 137.43597  z " clip-path="url(#p3f34f20632)" style="fill: #619cff; stroke: #619cff; stroke-width: 0.886227"/>
    <path d="M 154.321259 100.193333  C 154.791319 100.193333 155.242191 100.006576 155.574573 99.674193  C 155.906956 99.34181 156.093713 98.890939 156.093713 98.420879  C 156.093713 97.950819 155.906956 97.499947 155.574573 97.167565  C 155.242191 96.835182 154.791319 96.648425 154.321259 96.648425  C 153.851199 96.648425 153.400328 96.835182 153.067945 97.167565  C 152.735562 97.499947 152.548805 97.950819 152.548805 98.420879  C 152.548805 98.890939 152.735562 99.34181 153.067945 99.674193  C 153.400328 100.006576 153.851199 100.193333 154.321259 100.193333  z " clip-path="url(#p3f34f20632)" style="fill: #00ba38; stroke: #00ba38; stroke-width: 0.886227"/>
    <path d="M 132.253534 196.685628  C 132.723594 196.685628 133.174465 196.498871 133.506848 196.166489  C 133.839231 195.834106 134.025988 195.383235 134.025988 194.913174  C 134.025988 194.443114 133.839231 193.992243 133.506848 193.65986  C 133.174465 193.327477 132.723594 193.140721 132.253534 193.140721  C 131.783474 193.140721 131.332603 193.327477 131.00022 193.65986  C 130.667837 193.992243 130.48108 194.443114 130.48108 194.913174  C 130.48108 195.383235 130.667837 195.834106 131.00022 196.166489  C 131.332603 196.498871 131.783474 196.685628 132.253534 196.685628  z " clip-path="url(#p3f34f20632)" style="fill: #619cff; stroke: #619cff; stroke-width: 0.886227"/>
    <path d="M 223.402833 178.064306  C 223.872894 178.064306 224.323765 177.877549 224.656148 177.545167  C 224.98853 177.212784 225.175287 176.761913 225.175287 176.291852  C 225.175287 175.821792 224.98853 175.370921 224.656148 175.038538  C 224.323765 174.706156 223.872894 174.519399 223.402833 174.519399  C 222.932773 174.519399 222.481902 174.706156 222.149519 175.038538  C 221.817136 175.370921 221.63038 175.821792 221.63038 176.291852  C 221.63038 176.761913 221.817136 177.212784 222.149519 177.545167  C 222.481902 177.877549 222.932773 178.064306 223.402833 178.064306  z " clip-path="url(#p3f34f20632)" style="fill: #619cff; stroke: #619cff; stroke-width: 0.886227"/>
    <path d="M 280.970812 176.371461  C 281.440872 176.371461 281.891743 176.184704 282.224126 175.852321  C 282.556509 175.519938 282.743266 175.069067 282.743266 174.599007  C 282.743266 174.128947 282.556509 173.678076 282.224126 173.345693  C 281.891743 173.01331 281.440872 172.826553 280.970812 172.826553  C 280.500752 172.826553 280.049881 173.01331 279.717498 173.345693  C 279.385115 173.678076 279.198358 174.128947 279.198358 174.599007  C 279.198358 175.069067 279.385115 175.519938 279.717498 175.852321  C 280.049881 176.184704 280.500752 176.371461 280.970812 176.371461  z " clip-path="url(#p3f34f20632)" style="fill: #619cff; stroke: #619cff; stroke-width: 0.886227"/>
    <path d="M 223.9511 117.121806  C 224.42116 117.121806 224.872031 116.935049 225.204414 116.602666  C 225.536797 116.270283 225.723554 115.819412 225.723554 115.349352  C 225.723554 114.879291 225.536797 114.42842 225.204414 114.096038  C 224.872031 113.763655 224.42116 113.576898 223.9511 113.576898  C 223.48104 113.576898 223.030168 113.763655 222.697786 114.096038  C 222.365403 114.42842 222.178646 114.879291 222.178646 115.349352  C 222.178646 115.819412 222.365403 116.270283 222.697786 116.602666  C 223.030168 116.935049 223.48104 117.121806 223.9511 117.121806  z " clip-path="url(#p3f34f20632)" style="fill: #619cff; stroke: #619cff; stroke-width: 0.886227"/>
    <path d="M 125.53727 171.292915  C 126.00733 171.292915 126.458201 171.106159 126.790584 170.773776  C 127.122967 170.441393 127.309724 169.990522 127.309724 169.520462  C 127.309724 169.050401 127.122967 168.59953 126.790584 168.267147  C 126.458201 167.934765 126.00733 167.748008 125.53727 167.748008  C 125.06721 167.748008 124.616339 167.934765 124.283956 168.267147  C 123.951573 168.59953 123.764816 169.050401 123.764816 169.520462  C 123.764816 169.990522 123.951573 170.441393 124.283956 170.773776  C 124.616339 171.106159 125.06721 171.292915 125.53727 171.292915  z " clip-path="url(#p3f34f20632)" style="fill: #619cff; stroke: #619cff; stroke-width: 0.886227"/>
    <path d="M 160.76339 125.586042  C 161.23345 125.586042 161.684321 125.399285 162.016704 125.066902  C 162.349087 124.734519 162.535844 124.283648 162.535844 123.813588  C 162.535844 123.343528 162.349087 122.892657 162.016704 122.560274  C 161.684321 122.227891 161.23345 122.041134 160.76339 122.041134  C 160.29333 122.041134 159.842459 122.227891 159.510076 122.560274  C 159.177693 122.892657 158.990936 123.343528 158.990936 123.813588  C 158.990936 124.283648 159.177693 124.734519 159.510076 125.066902  C 159.842459 125.399285 160.29333 125.586042 160.76339 125.586042  z " clip-path="url(#p3f34f20632)" style="fill: #619cff; stroke: #619cff; stroke-width: 0.886227"/>
    <path d="M 135.131933 117.121806  C 135.601993 117.121806 136.052864 116.935049 136.385247 116.602666  C 136.71763 116.270283 136.904387 115.819412 136.904387 115.349352  C 136.904387 114.879291 136.71763 114.42842 136.385247 114.096038  C 136.052864 113.763655 135.601993 113.576898 135.131933 113.576898  C 134.661873 113.576898 134.211002 113.763655 133.878619 114.096038  C 133.546236 114.42842 133.359479 114.879291 133.359479 115.349352  C 133.359479 115.819412 133.546236 116.270283 133.878619 116.602666  C 134.211002 116.935049 134.661873 117.121806 135.131933 117.121806  z " clip-path="url(#p3f34f20632)" style="fill: #619cff; stroke: #619cff; stroke-width: 0.886227"/>
    <path d="M 200.923908 211.921252  C 201.393969 211.921252 201.84484 211.734495 202.177223 211.402112  C 202.509605 211.06973 202.696362 210.618859 202.696362 210.148798  C 202.696362 209.678738 202.509605 209.227867 202.177223 208.895484  C 201.84484 208.563101 201.393969 208.376344 200.923908 208.376344  C 200.453848 208.376344 200.002977 208.563101 199.670594 208.895484  C 199.338212 209.227867 199.151455 209.678738 199.151455 210.148798  C 199.151455 210.618859 199.338212 211.06973 199.670594 211.402112  C 200.002977 211.734495 200.453848 211.921252 200.923908 211.921252  z " clip-path="url(#p3f34f20632)" style="fill: #619cff; stroke: #619cff; stroke-width: 0.886227"/>
    <path d="M 198.182576 211.921252  C 198.652636 211.921252 199.103507 211.734495 199.43589 211.402112  C 199.768273 211.06973 199.95503 210.618859 199.95503 210.148798  C 199.95503 209.678738 199.768273 209.227867 199.43589 208.895484  C 199.103507 208.563101 198.652636 208.376344 198.182576 208.376344  C 197.712516 208.376344 197.261645 208.563101 196.929262 208.895484  C 196.596879 209.227867 196.410122 209.678738 196.410122 210.148798  C 196.410122 210.618859 196.596879 211.06973 196.929262 211.402112  C 197.261645 211.734495 197.712516 211.921252 198.182576 211.921252  z " clip-path="url(#p3f34f20632)" style="fill: #619cff; stroke: #619cff; stroke-width: 0.886227"/>
    <path d="M 190.506846 159.442988  C 190.976906 159.442988 191.427777 159.256231 191.76016 158.923848  C 192.092543 158.591465 192.2793 158.140594 192.2793 157.670534  C 192.2793 157.200474 192.092543 156.749603 191.76016 156.41722  C 191.427777 156.084837 190.976906 155.89808 190.506846 155.89808  C 190.036785 155.89808 189.585914 156.084837 189.253532 156.41722  C 188.921149 156.749603 188.734392 157.200474 188.734392 157.670534  C 188.734392 158.140594 188.921149 158.591465 189.253532 158.923848  C 189.585914 159.256231 190.036785 159.442988 190.506846 159.442988  z " clip-path="url(#p3f34f20632)" style="fill: #619cff; stroke: #619cff; stroke-width: 0.886227"/>
    <path d="M 193.248178 156.057297  C 193.718238 156.057297 194.169109 155.87054 194.501492 155.538157  C 194.833875 155.205774 195.020632 154.754903 195.020632 154.284843  C 195.020632 153.814783 194.833875 153.363911 194.501492 153.031529  C 194.169109 152.699146 193.718238 152.512389 193.248178 152.512389  C 192.778118 152.512389 192.327247 152.699146 191.994864 153.031529  C 191.662481 153.363911 191.475724 153.814783 191.475724 154.284843  C 191.475724 154.754903 191.662481 155.205774 191.994864 155.538157  C 192.327247 155.87054 192.778118 156.057297 193.248178 156.057297  z " clip-path="url(#p3f34f20632)" style="fill: #619cff; stroke: #619cff; stroke-width: 0.886227"/>
    <path d="M 187.08018 157.750142  C 187.550241 157.750142 188.001112 157.563385 188.333494 157.231002  C 188.665877 156.89862 188.852634 156.447749 188.852634 155.977688  C 188.852634 155.507628 188.665877 155.056757 188.333494 154.724374  C 188.001112 154.391991 187.550241 154.205235 187.08018 154.205235  C 186.61012 154.205235 186.159249 154.391991 185.826866 154.724374  C 185.494483 155.056757 185.307726 155.507628 185.307726 155.977688  C 185.307726 156.447749 185.494483 156.89862 185.826866 157.231002  C 186.159249 157.563385 186.61012 157.750142 187.08018 157.750142  z " clip-path="url(#p3f34f20632)" style="fill: #619cff; stroke: #619cff; stroke-width: 0.886227"/>
    <path d="M 82.909553 66.336387  C 83.379613 66.336387 83.830484 66.14963 84.162867 65.817247  C 84.495249 65.484864 84.682006 65.033993 84.682006 64.563933  C 84.682006 64.093873 84.495249 63.643002 84.162867 63.310619  C 83.830484 62.978236 83.379613 62.791479 82.909553 62.791479  C 82.439492 62.791479 81.988621 62.978236 81.656238 63.310619  C 81.323856 63.643002 81.137099 64.093873 81.137099 64.563933  C 81.137099 65.033993 81.323856 65.484864 81.656238 65.817247  C 81.988621 66.14963 82.439492 66.336387 82.909553 66.336387  z " clip-path="url(#p3f34f20632)" style="fill: #619cff; stroke: #619cff; stroke-width: 0.886227"/>
    <path d="M 157.610858 49.407914  C 158.080918 49.407914 158.531789 49.221157 158.864172 48.888774  C 159.196555 48.556391 159.383312 48.10552 159.383312 47.63546  C 159.383312 47.1654 159.196555 46.714529 158.864172 46.382146  C 158.531789 46.049763 158.080918 45.863006 157.610858 45.863006  C 157.140798 45.863006 156.689927 46.049763 156.357544 46.382146  C 156.025161 46.714529 155.838404 47.1654 155.838404 47.63546  C 155.838404 48.10552 156.025161 48.556391 156.357544 48.888774  C 156.689927 49.221157 157.140798 49.407914 157.610858 49.407914  z " clip-path="url(#p3f34f20632)" style="fill: #619cff; stroke: #619cff; stroke-width: 0.886227"/>
    <path d="M 144.315396 113.736114  C 144.785457 113.736114 145.236328 113.549357 145.56871 113.216975  C 145.901093 112.884592 146.08785 112.433721 146.08785 111.96366  C 146.08785 111.4936 145.901093 111.042729 145.56871 110.710346  C 145.236328 110.377964 144.785457 110.191207 144.315396 110.191207  C 143.845336 110.191207 143.394465 110.377964 143.062082 110.710346  C 142.729699 111.042729 142.542942 111.4936 142.542942 111.96366  C 142.542942 112.433721 142.729699 112.884592 143.062082 113.216975  C 143.394465 113.549357 143.845336 113.736114 144.315396 113.736114  z " clip-path="url(#p3f34f20632)" style="fill: #619cff; stroke: #619cff; stroke-width: 0.886227"/>
    <path d="M 156.788458 125.586042  C 157.258519 125.586042 157.70939 125.399285 158.041772 125.066902  C 158.374155 124.734519 158.560912 124.283648 158.560912 123.813588  C 158.560912 123.343528 158.374155 122.892657 158.041772 122.560274  C 157.70939 122.227891 157.258519 122.041134 156.788458 122.041134  C 156.318398 122.041134 155.867527 122.227891 155.535144 122.560274  C 155.202761 122.892657 155.016004 123.343528 155.016004 123.813588  C 155.016004 124.283648 155.202761 124.734519 155.535144 125.066902  C 155.867527 125.399285 156.318398 125.586042 156.788458 125.586042  z " clip-path="url(#p3f34f20632)" style="fill: #00ba38; stroke: #00ba38; stroke-width: 0.886227"/>
    <path d="M 286.453476 49.407914  C 286.923537 49.407914 287.374408 49.221157 287.706791 48.888774  C 288.039173 48.556391 288.22593 48.10552 288.22593 47.63546  C 288.22593 47.1654 288.039173 46.714529 287.706791 46.382146  C 287.374408 46.049763 286.923537 45.863006 286.453476 45.863006  C 285.983416 45.863006 285.532545 46.049763 285.200162 46.382146  C 284.86778 46.714529 284.681023 47.1654 284.681023 47.63546  C 284.681023 48.10552 284.86778 48.556391 285.200162 48.888774  C 285.532545 49.221157 285.983416 49.407914 286.453476 49.407914  z " clip-path="url(#p3f34f20632)" style="fill: #619cff; stroke: #619cff; stroke-width: 0.886227"/>
    <path d="M 120.602872 183.142852  C 121.072932 183.142852 121.523803 182.956095 121.856186 182.623712  C 122.188569 182.291329 122.375326 181.840458 122.375326 181.370398  C 122.375326 180.900337 122.188569 180.449466 121.856186 180.117084  C 121.523803 179.784701 121.072932 179.597944 120.602872 179.597944  C 120.132812 179.597944 119.68194 179.784701 119.349558 180.117084  C 119.017175 180.449466 118.830418 180.900337 118.830418 181.370398  C 118.830418 181.840458 119.017175 182.291329 119.349558 182.623712  C 119.68194 182.956095 120.132812 183.142852 120.602872 183.142852  z " clip-path="url(#p3f34f20632)" style="fill: #619cff; stroke: #619cff; stroke-width: 0.886227"/>
    <path d="M 125.53727 161.135833  C 126.00733 161.135833 126.458201 160.949076 126.790584 160.616694  C 127.122967 160.284311 127.309724 159.83344 127.309724 159.36338  C 127.309724 158.893319 127.122967 158.442448 126.790584 158.110065  C 126.458201 157.777683 126.00733 157.590926 125.53727 157.590926  C 125.06721 157.590926 124.616339 157.777683 124.283956 158.110065  C 123.951573 158.442448 123.764816 158.893319 123.764816 159.36338  C 123.764816 159.83344 123.951573 160.284311 124.283956 160.616694  C 124.616339 160.949076 125.06721 161.135833 125.53727 161.135833  z " clip-path="url(#p3f34f20632)" style="fill: #619cff; stroke: #619cff; stroke-width: 0.886227"/>
    <path d="M 143.218863 125.586042  C 143.688924 125.586042 144.139795 125.399285 144.472177 125.066902  C 144.80456 124.734519 144.991317 124.283648 144.991317 123.813588  C 144.991317 123.343528 144.80456 122.892657 144.472177 122.560274  C 144.139795 122.227891 143.688924 122.041134 143.218863 122.041134  C 142.748803 122.041134 142.297932 122.227891 141.965549 122.560274  C 141.633166 122.892657 141.446409 123.343528 141.446409 123.813588  C 141.446409 124.283648 141.633166 124.734519 141.965549 125.066902  C 142.297932 125.399285 142.748803 125.586042 143.218863 125.586042  z " clip-path="url(#p3f34f20632)" style="fill: #619cff; stroke: #619cff; stroke-width: 0.886227"/>
    <path d="M 88.803417 68.029234  C 89.273477 68.029234 89.724348 67.842477 90.056731 67.510094  C 90.389114 67.177712 90.575871 66.72684 90.575871 66.25678  C 90.575871 65.78672 90.389114 65.335849 90.056731 65.003466  C 89.724348 64.671083 89.273477 64.484326 88.803417 64.484326  C 88.333357 64.484326 87.882486 64.671083 87.550103 65.003466  C 87.21772 65.335849 87.030963 65.78672 87.030963 66.25678  C 87.030963 66.72684 87.21772 67.177712 87.550103 67.510094  C 87.882486 67.842477 88.333357 68.029234 88.803417 68.029234  z " clip-path="url(#p3f34f20632)" style="fill: #619cff; stroke: #619cff; stroke-width: 0.886227"/>
    <path d="M 169.946853 176.371461  C 170.416914 176.371461 170.867785 176.184704 171.200167 175.852321  C 171.53255 175.519938 171.719307 175.069067 171.719307 174.599007  C 171.719307 174.128947 171.53255 173.678076 171.200167 173.345693  C 170.867785 173.01331 170.416914 172.826553 169.946853 172.826553  C 169.476793 172.826553 169.025922 173.01331 168.693539 173.345693  C 168.361156 173.678076 168.174399 174.128947 168.174399 174.599007  C 168.174399 175.069067 168.361156 175.519938 168.693539 175.852321  C 169.025922 176.184704 169.476793 176.371461 169.946853 176.371461  z " clip-path="url(#p3f34f20632)" style="fill: #619cff; stroke: #619cff; stroke-width: 0.886227"/>
    <path d="M 197.360176 178.064306  C 197.830237 178.064306 198.281108 177.877549 198.613491 177.545167  C 198.945873 177.212784 199.13263 176.761913 199.13263 176.291852  C 199.13263 175.821792 198.945873 175.370921 198.613491 175.038538  C 198.281108 174.706156 197.830237 174.519399 197.360176 174.519399  C 196.890116 174.519399 196.439245 174.706156 196.106862 175.038538  C 195.77448 175.370921 195.587723 175.821792 195.587723 176.291852  C 195.587723 176.761913 195.77448 177.212784 196.106862 177.545167  C 196.439245 177.877549 196.890116 178.064306 197.360176 178.064306  z " clip-path="url(#p3f34f20632)" style="fill: #619cff; stroke: #619cff; stroke-width: 0.886227"/>
    <path d="M 149.660994 178.064306  C 150.131055 178.064306 150.581926 177.877549 150.914308 177.545167  C 151.246691 177.212784 151.433448 176.761913 151.433448 176.291852  C 151.433448 175.821792 151.246691 175.370921 150.914308 175.038538  C 150.581926 174.706156 150.131055 174.519399 149.660994 174.519399  C 149.190934 174.519399 148.740063 174.706156 148.40768 175.038538  C 148.075297 175.370921 147.88854 175.821792 147.88854 176.291852  C 147.88854 176.761913 148.075297 177.212784 148.40768 177.545167  C 148.740063 177.877549 149.190934 178.064306 149.660994 178.064306  z " clip-path="url(#p3f34f20632)" style="fill: #619cff; stroke: #619cff; stroke-width: 0.886227"/>
    <path d="M 291.936141 154.364443  C 292.406201 154.364443 292.857072 154.177686 293.189455 153.845303  C 293.521838 153.51292 293.708595 153.062049 293.708595 152.591989  C 293.708595 152.121928 293.521838 151.671057 293.189455 151.338675  C 292.857072 151.006292 292.406201 150.819535 291.936141 150.819535  C 291.466081 150.819535 291.01521 151.006292 290.682827 151.338675  C 290.350444 151.671057 290.163687 152.121928 290.163687 152.591989  C 290.163687 153.062049 290.350444 153.51292 290.682827 153.845303  C 291.01521 154.177686 291.466081 154.364443 291.936141 154.364443  z " clip-path="url(#p3f34f20632)" style="fill: #619cff; stroke: #619cff; stroke-width: 0.886227"/>
    <path d="M 77.975154 142.514515  C 78.445215 142.514515 78.896086 142.327758 79.228469 141.995375  C 79.560851 141.662992 79.747608 141.212121 79.747608 140.742061  C 79.747608 140.272001 79.560851 139.82113 79.228469 139.488747  C 78.896086 139.156364 78.445215 138.969607 77.975154 138.969607  C 77.505094 138.969607 77.054223 139.156364 76.72184 139.488747  C 76.389457 139.82113 76.202701 140.272001 76.202701 140.742061  C 76.202701 141.212121 76.389457 141.662992 76.72184 141.995375  C 77.054223 142.327758 77.505094 142.514515 77.975154 142.514515  z " clip-path="url(#p3f34f20632)" style="fill: #619cff; stroke: #619cff; stroke-width: 0.886227"/>
    <path d="M 131.842334 93.42195  C 132.312395 93.42195 132.763266 93.235193 133.095648 92.902811  C 133.428031 92.570428 133.614788 92.119557 133.614788 91.649496  C 133.614788 91.179436 133.428031 90.728565 133.095648 90.396182  C 132.763266 90.063799 132.312395 89.877043 131.842334 89.877043  C 131.372274 89.877043 130.921403 90.063799 130.58902 90.396182  C 130.256637 90.728565 130.06988 91.179436 130.06988 91.649496  C 130.06988 92.119557 130.256637 92.570428 130.58902 92.902811  C 130.921403 93.235193 131.372274 93.42195 131.842334 93.42195  z " clip-path="url(#p3f34f20632)" style="fill: #619cff; stroke: #619cff; stroke-width: 0.886227"/>
    <path d="M 122.933004 108.657569  C 123.403065 108.657569 123.853936 108.470812 124.186318 108.138429  C 124.518701 107.806047 124.705458 107.355175 124.705458 106.885115  C 124.705458 106.415055 124.518701 105.964184 124.186318 105.631801  C 123.853936 105.299418 123.403065 105.112661 122.933004 105.112661  C 122.462944 105.112661 122.012073 105.299418 121.67969 105.631801  C 121.347307 105.964184 121.16055 106.415055 121.16055 106.885115  C 121.16055 107.355175 121.347307 107.806047 121.67969 108.138429  C 122.012073 108.470812 122.462944 108.657569 122.933004 108.657569  z " clip-path="url(#p3f34f20632)" style="fill: #619cff; stroke: #619cff; stroke-width: 0.886227"/>
    <path d="M 104.703144 100.193333  C 105.173205 100.193333 105.624076 100.006576 105.956459 99.674193  C 106.288841 99.34181 106.475598 98.890939 106.475598 98.420879  C 106.475598 97.950819 106.288841 97.499947 105.956459 97.167565  C 105.624076 96.835182 105.173205 96.648425 104.703144 96.648425  C 104.233084 96.648425 103.782213 96.835182 103.44983 97.167565  C 103.117447 97.499947 102.930691 97.950819 102.930691 98.420879  C 102.930691 98.890939 103.117447 99.34181 103.44983 99.674193  C 103.782213 100.006576 104.233084 100.193333 104.703144 100.193333  z " clip-path="url(#p3f34f20632)" style="fill: #619cff; stroke: #619cff; stroke-width: 0.886227"/>
    <path d="M 207.640173 88.343405  C 208.110233 88.343405 208.561104 88.156648 208.893487 87.824265  C 209.22587 87.491882 209.412626 87.041011 209.412626 86.570951  C 209.412626 86.100891 209.22587 85.65002 208.893487 85.317637  C 208.561104 84.985254 208.110233 84.798497 207.640173 84.798497  C 207.170112 84.798497 206.719241 84.985254 206.386858 85.317637  C 206.054476 85.65002 205.867719 86.100891 205.867719 86.570951  C 205.867719 87.041011 206.054476 87.491882 206.386858 87.824265  C 206.719241 88.156648 207.170112 88.343405 207.640173 88.343405  z " clip-path="url(#p3f34f20632)" style="fill: #619cff; stroke: #619cff; stroke-width: 0.886227"/>
    <path d="M 99.357546 40.943677  C 99.827607 40.943677 100.278478 40.756921 100.610861 40.424538  C 100.943243 40.092155 101.13 39.641284 101.13 39.171224  C 101.13 38.701163 100.943243 38.250292 100.610861 37.917909  C 100.278478 37.585527 99.827607 37.39877 99.357546 37.39877  C 98.887486 37.39877 98.436615 37.585527 98.104232 37.917909  C 97.771849 38.250292 97.585093 38.701163 97.585093 39.171224  C 97.585093 39.641284 97.771849 40.092155 98.104232 40.424538  C 98.436615 40.756921 98.887486 40.943677 99.357546 40.943677  z " clip-path="url(#p3f34f20632)" style="fill: #619cff; stroke: #619cff; stroke-width: 0.886227"/>
    <path d="M 56.866896 15.550968  C 57.336956 15.550968 57.787827 15.364211 58.12021 15.031828  C 58.452593 14.699446 58.639349 14.248574 58.639349 13.778514  C 58.639349 13.308454 58.452593 12.857583 58.12021 12.5252  C 57.787827 12.192817 57.336956 12.00606 56.866896 12.00606  C 56.396835 12.00606 55.945964 12.192817 55.613581 12.5252  C 55.281199 12.857583 55.094442 13.308454 55.094442 13.778514  C 55.094442 14.248574 55.281199 14.699446 55.613581 15.031828  C 55.945964 15.364211 56.396835 15.550968 56.866896 15.550968  z " clip-path="url(#p3f34f20632)" style="fill: #619cff; stroke: #619cff; stroke-width: 0.886227"/>
    <path d="M 303.72387 142.514515  C 304.19393 142.514515 304.644801 142.327758 304.977184 141.995375  C 305.309567 141.662992 305.496324 141.212121 305.496324 140.742061  C 305.496324 140.272001 305.309567 139.82113 304.977184 139.488747  C 304.644801 139.156364 304.19393 138.969607 303.72387 138.969607  C 303.25381 138.969607 302.802939 139.156364 302.470556 139.488747  C 302.138173 139.82113 301.951416 140.272001 301.951416 140.742061  C 301.951416 141.212121 302.138173 141.662992 302.470556 141.995375  C 302.802939 142.327758 303.25381 142.514515 303.72387 142.514515  z " clip-path="url(#p3f34f20632)" style="fill: #619cff; stroke: #619cff; stroke-width: 0.886227"/>
    <path d="M 285.08281 84.957714  C 285.552871 84.957714 286.003742 84.770957 286.336124 84.438574  C 286.668507 84.106191 286.855264 83.65532 286.855264 83.18526  C 286.855264 82.7152 286.668507 82.264329 286.336124 81.931946  C 286.003742 81.599563 285.552871 81.412806 285.08281 81.412806  C 284.61275 81.412806 284.161879 81.599563 283.829496 81.931946  C 283.497113 82.264329 283.310356 82.7152 283.310356 83.18526  C 283.310356 83.65532 283.497113 84.106191 283.829496 84.438574  C 284.161879 84.770957 284.61275 84.957714 285.08281 84.957714  z " clip-path="url(#p3f34f20632)" style="fill: #619cff; stroke: #619cff; stroke-width: 0.886227"/>
    <path d="M 68.380491 74.800623  C 68.850552 74.800623 69.301423 74.613866 69.633805 74.281484  C 69.966188 73.949101 70.152945 73.49823 70.152945 73.028169  C 70.152945 72.558109 69.966188 72.107238 69.633805 71.774855  C 69.301423 71.442472 68.850552 71.255716 68.380491 71.255716  C 67.910431 71.255716 67.45956 71.442472 67.127177 71.774855  C 66.794794 72.107238 66.608037 72.558109 66.608037 73.028169  C 66.608037 73.49823 66.794794 73.949101 67.127177 74.281484  C 67.45956 74.613866 67.910431 74.800623 68.380491 74.800623  z " clip-path="url(#p3f34f20632)" style="fill: #619cff; stroke: #619cff; stroke-width: 0.886227"/>
    <path d="M 261.507352 139.128824  C 261.977413 139.128824 262.428284 138.942067 262.760667 138.609684  C 263.093049 138.277301 263.279806 137.82643 263.279806 137.35637  C 263.279806 136.88631 263.093049 136.435439 262.760667 136.103056  C 262.428284 135.770673 261.977413 135.583916 261.507352 135.583916  C 261.037292 135.583916 260.586421 135.770673 260.254038 136.103056  C 259.921656 136.435439 259.734899 136.88631 259.734899 137.35637  C 259.734899 137.82643 259.921656 138.277301 260.254038 138.609684  C 260.586421 138.942067 261.037292 139.128824 261.507352 139.128824  z " clip-path="url(#p3f34f20632)" style="fill: #00ba38; stroke: #00ba38; stroke-width: 0.886227"/>
    <path d="M 141.848197 130.664587  C 142.318257 130.664587 142.769129 130.47783 143.101511 130.145448  C 143.433894 129.813065 143.620651 129.362194 143.620651 128.892133  C 143.620651 128.422073 143.433894 127.971202 143.101511 127.638819  C 142.769129 127.306436 142.318257 127.11968 141.848197 127.11968  C 141.378137 127.11968 140.927266 127.306436 140.594883 127.638819  C 140.2625 127.971202 140.075743 128.422073 140.075743 128.892133  C 140.075743 129.362194 140.2625 129.813065 140.594883 130.145448  C 140.927266 130.47783 141.378137 130.664587 141.848197 130.664587  z " clip-path="url(#p3f34f20632)" style="fill: #00ba38; stroke: #00ba38; stroke-width: 0.886227"/>
    <path d="M 117.587406 113.736114  C 118.057466 113.736114 118.508338 113.549357 118.84072 113.216975  C 119.173103 112.884592 119.35986 112.433721 119.35986 111.96366  C 119.35986 111.4936 119.173103 111.042729 118.84072 110.710346  C 118.508338 110.377964 118.057466 110.191207 117.587406 110.191207  C 117.117346 110.191207 116.666475 110.377964 116.334092 110.710346  C 116.001709 111.042729 115.814952 111.4936 115.814952 111.96366  C 115.814952 112.433721 116.001709 112.884592 116.334092 113.216975  C 116.666475 113.549357 117.117346 113.736114 117.587406 113.736114  z " clip-path="url(#p3f34f20632)" style="fill: #00ba38; stroke: #00ba38; stroke-width: 0.886227"/>
    <path d="M 138.558598 128.971733  C 139.028659 128.971733 139.47953 128.784976 139.811913 128.452593  C 140.144295 128.120211 140.331052 127.66934 140.331052 127.199279  C 140.331052 126.729219 140.144295 126.278348 139.811913 125.945965  C 139.47953 125.613582 139.028659 125.426825 138.558598 125.426825  C 138.088538 125.426825 137.637667 125.613582 137.305284 125.945965  C 136.972901 126.278348 136.786145 126.729219 136.786145 127.199279  C 136.786145 127.66934 136.972901 128.120211 137.305284 128.452593  C 137.637667 128.784976 138.088538 128.971733 138.558598 128.971733  z " clip-path="url(#p3f34f20632)" style="fill: #619cff; stroke: #619cff; stroke-width: 0.886227"/>
    <path d="M 123.070071 101.886187  C 123.540131 101.886187 123.991002 101.69943 124.323385 101.367047  C 124.655768 101.034664 124.842525 100.583793 124.842525 100.113733  C 124.842525 99.643673 124.655768 99.192801 124.323385 98.860419  C 123.991002 98.528036 123.540131 98.341279 123.070071 98.341279  C 122.600011 98.341279 122.14914 98.528036 121.816757 98.860419  C 121.484374 99.192801 121.297617 99.643673 121.297617 100.113733  C 121.297617 100.583793 121.484374 101.034664 121.816757 101.367047  C 122.14914 101.69943 122.600011 101.886187 123.070071 101.886187  z " clip-path="url(#p3f34f20632)" style="fill: #619cff; stroke: #619cff; stroke-width: 0.886227"/>
    <path d="M 206.680706 184.835697  C 207.150767 184.835697 207.601638 184.64894 207.93402 184.316557  C 208.266403 183.984175 208.45316 183.533304 208.45316 183.063243  C 208.45316 182.593183 208.266403 182.142312 207.93402 181.809929  C 207.601638 181.477546 207.150767 181.290789 206.680706 181.290789  C 206.210646 181.290789 205.759775 181.477546 205.427392 181.809929  C 205.095009 182.142312 204.908252 182.593183 204.908252 183.063243  C 204.908252 183.533304 205.095009 183.984175 205.427392 184.316557  C 205.759775 184.64894 206.210646 184.835697 206.680706 184.835697  z " clip-path="url(#p3f34f20632)" style="fill: #619cff; stroke: #619cff; stroke-width: 0.886227"/>
    <path d="M 168.576187 117.121806  C 169.046247 117.121806 169.497119 116.935049 169.829501 116.602666  C 170.161884 116.270283 170.348641 115.819412 170.348641 115.349352  C 170.348641 114.879291 170.161884 114.42842 169.829501 114.096038  C 169.497119 113.763655 169.046247 113.576898 168.576187 113.576898  C 168.106127 113.576898 167.655256 113.763655 167.322873 114.096038  C 166.99049 114.42842 166.803733 114.879291 166.803733 115.349352  C 166.803733 115.819412 166.99049 116.270283 167.322873 116.602666  C 167.655256 116.935049 168.106127 117.121806 168.576187 117.121806  z " clip-path="url(#p3f34f20632)" style="fill: #619cff; stroke: #619cff; stroke-width: 0.886227"/>
    <path d="M 91.133549 135.743124  C 91.60361 135.743124 92.054481 135.556367 92.386864 135.223984  C 92.719246 134.891602 92.906003 134.44073 92.906003 133.97067  C 92.906003 133.50061 92.719246 133.049739 92.386864 132.717356  C 92.054481 132.384973 91.60361 132.198216 91.133549 132.198216  C 90.663489 132.198216 90.212618 132.384973 89.880235 132.717356  C 89.547853 133.049739 89.361096 133.50061 89.361096 133.97067  C 89.361096 134.44073 89.547853 134.891602 89.880235 135.223984  C 90.212618 135.556367 90.663489 135.743124 91.133549 135.743124  z " clip-path="url(#p3f34f20632)" style="fill: #619cff; stroke: #619cff; stroke-width: 0.886227"/>
    <path d="M 153.910059 108.657569  C 154.38012 108.657569 154.830991 108.470812 155.163373 108.138429  C 155.495756 107.806047 155.682513 107.355175 155.682513 106.885115  C 155.682513 106.415055 155.495756 105.964184 155.163373 105.631801  C 154.830991 105.299418 154.38012 105.112661 153.910059 105.112661  C 153.439999 105.112661 152.989128 105.299418 152.656745 105.631801  C 152.324362 105.964184 152.137605 106.415055 152.137605 106.885115  C 152.137605 107.355175 152.324362 107.806047 152.656745 108.138429  C 152.989128 108.470812 153.439999 108.657569 153.910059 108.657569  z " clip-path="url(#p3f34f20632)" style="fill: #619cff; stroke: #619cff; stroke-width: 0.886227"/>
    <path d="M 144.17833 117.121806  C 144.64839 117.121806 145.099261 116.935049 145.431644 116.602666  C 145.764027 116.270283 145.950783 115.819412 145.950783 115.349352  C 145.950783 114.879291 145.764027 114.42842 145.431644 114.096038  C 145.099261 113.763655 144.64839 113.576898 144.17833 113.576898  C 143.708269 113.576898 143.257398 113.763655 142.925016 114.096038  C 142.592633 114.42842 142.405876 114.879291 142.405876 115.349352  C 142.405876 115.819412 142.592633 116.270283 142.925016 116.602666  C 143.257398 116.935049 143.708269 117.121806 144.17833 117.121806  z " clip-path="url(#p3f34f20632)" style="fill: #619cff; stroke: #619cff; stroke-width: 0.886227"/>
    <path d="M 198.730843 100.193333  C 199.200903 100.193333 199.651774 100.006576 199.984157 99.674193  C 200.31654 99.34181 200.503296 98.890939 200.503296 98.420879  C 200.503296 97.950819 200.31654 97.499947 199.984157 97.167565  C 199.651774 96.835182 199.200903 96.648425 198.730843 96.648425  C 198.260782 96.648425 197.809911 96.835182 197.477528 97.167565  C 197.145146 97.499947 196.958389 97.950819 196.958389 98.420879  C 196.958389 98.890939 197.145146 99.34181 197.477528 99.674193  C 197.809911 100.006576 198.260782 100.193333 198.730843 100.193333  z " clip-path="url(#p3f34f20632)" style="fill: #619cff; stroke: #619cff; stroke-width: 0.886227"/>
    <path d="M 134.994866 103.579024  C 135.464927 103.579024 135.915798 103.392267 136.248181 103.059884  C 136.580563 102.727501 136.76732 102.27663 136.76732 101.80657  C 136.76732 101.33651 136.580563 100.885639 136.248181 100.553256  C 135.915798 100.220873 135.464927 100.034116 134.994866 100.034116  C 134.524806 100.034116 134.073935 100.220873 133.741552 100.553256  C 133.409169 100.885639 133.222413 101.33651 133.222413 101.80657  C 133.222413 102.27663 133.409169 102.727501 133.741552 103.059884  C 134.073935 103.392267 134.524806 103.579024 134.994866 103.579024  z " clip-path="url(#p3f34f20632)" style="fill: #619cff; stroke: #619cff; stroke-width: 0.886227"/>
    <path d="M 107.992743 122.200351  C 108.462803 122.200351 108.913675 122.013594 109.246057 121.681211  C 109.57844 121.348828 109.765197 120.897957 109.765197 120.427897  C 109.765197 119.957837 109.57844 119.506966 109.246057 119.174583  C 108.913675 118.8422 108.462803 118.655443 107.992743 118.655443  C 107.522683 118.655443 107.071812 118.8422 106.739429 119.174583  C 106.407046 119.506966 106.220289 119.957837 106.220289 120.427897  C 106.220289 120.897957 106.407046 121.348828 106.739429 121.681211  C 107.071812 122.013594 107.522683 122.200351 107.992743 122.200351  z " clip-path="url(#p3f34f20632)" style="fill: #619cff; stroke: #619cff; stroke-width: 0.886227"/>
    <path d="M 229.570831 176.371461  C 230.040891 176.371461 230.491762 176.184704 230.824145 175.852321  C 231.156528 175.519938 231.343285 175.069067 231.343285 174.599007  C 231.343285 174.128947 231.156528 173.678076 230.824145 173.345693  C 230.491762 173.01331 230.040891 172.826553 229.570831 172.826553  C 229.100771 172.826553 228.6499 173.01331 228.317517 173.345693  C 227.985134 173.678076 227.798377 174.128947 227.798377 174.599007  C 227.798377 175.069067 227.985134 175.519938 228.317517 175.852321  C 228.6499 176.184704 229.100771 176.371461 229.570831 176.371461  z " clip-path="url(#p3f34f20632)" style="fill: #f8766d; stroke: #f8766d; stroke-width: 0.886227"/>
    <path d="M 140.477531 91.729096  C 140.947591 91.729096 141.398462 91.542339 141.730845 91.209956  C 142.063228 90.877574 142.249985 90.426703 142.249985 89.956642  C 142.249985 89.486582 142.063228 89.035711 141.730845 88.703328  C 141.398462 88.370945 140.947591 88.184188 140.477531 88.184188  C 140.007471 88.184188 139.5566 88.370945 139.224217 88.703328  C 138.891834 89.035711 138.705077 89.486582 138.705077 89.956642  C 138.705077 90.426703 138.891834 90.877574 139.224217 91.209956  C 139.5566 91.542339 140.007471 91.729096 140.477531 91.729096  z " clip-path="url(#p3f34f20632)" style="fill: #619cff; stroke: #619cff; stroke-width: 0.886227"/>
    <path d="M 93.874882 64.64354  C 94.344942 64.64354 94.795813 64.456783 95.128196 64.1244  C 95.460579 63.792017 95.647336 63.341146 95.647336 62.871086  C 95.647336 62.401025 95.460579 61.950154 95.128196 61.617772  C 94.795813 61.285389 94.344942 61.098632 93.874882 61.098632  C 93.404822 61.098632 92.95395 61.285389 92.621568 61.617772  C 92.289185 61.950154 92.102428 62.401025 92.102428 62.871086  C 92.102428 63.341146 92.289185 63.792017 92.621568 64.1244  C 92.95395 64.456783 93.404822 64.64354 93.874882 64.64354  z " clip-path="url(#p3f34f20632)" style="fill: #619cff; stroke: #619cff; stroke-width: 0.886227"/>
    <path d="M 290.428408 113.736114  C 290.898469 113.736114 291.34934 113.549357 291.681722 113.216975  C 292.014105 112.884592 292.200862 112.433721 292.200862 111.96366  C 292.200862 111.4936 292.014105 111.042729 291.681722 110.710346  C 291.34934 110.377964 290.898469 110.191207 290.428408 110.191207  C 289.958348 110.191207 289.507477 110.377964 289.175094 110.710346  C 288.842711 111.042729 288.655954 111.4936 288.655954 111.96366  C 288.655954 112.433721 288.842711 112.884592 289.175094 113.216975  C 289.507477 113.549357 289.958348 113.736114 290.428408 113.736114  z " clip-path="url(#p3f34f20632)" style="fill: #f8766d; stroke: #f8766d; stroke-width: 0.886227"/>
    <path d="M 152.128193 134.050278  C 152.598254 134.050278 153.049125 133.863522 153.381507 133.531139  C 153.71389 133.198756 153.900647 132.747885 153.900647 132.277825  C 153.900647 131.807764 153.71389 131.356893 153.381507 131.02451  C 153.049125 130.692128 152.598254 130.505371 152.128193 130.505371  C 151.658133 130.505371 151.207262 130.692128 150.874879 131.02451  C 150.542496 131.356893 150.355739 131.807764 150.355739 132.277825  C 150.355739 132.747885 150.542496 133.198756 150.874879 133.531139  C 151.207262 133.863522 151.658133 134.050278 152.128193 134.050278  z " clip-path="url(#p3f34f20632)" style="fill: #00ba38; stroke: #00ba38; stroke-width: 0.886227"/>
    <path d="M 128.141536 127.278888  C 128.611596 127.278888 129.062467 127.092131 129.39485 126.759748  C 129.727233 126.427365 129.913989 125.976494 129.913989 125.506434  C 129.913989 125.036373 129.727233 124.585502 129.39485 124.25312  C 129.062467 123.920737 128.611596 123.73398 128.141536 123.73398  C 127.671475 123.73398 127.220604 123.920737 126.888221 124.25312  C 126.555839 124.585502 126.369082 125.036373 126.369082 125.506434  C 126.369082 125.976494 126.555839 126.427365 126.888221 126.759748  C 127.220604 127.092131 127.671475 127.278888 128.141536 127.278888  z " clip-path="url(#p3f34f20632)" style="fill: #619cff; stroke: #619cff; stroke-width: 0.886227"/>
    <path d="M 72.629556 49.407914  C 73.099617 49.407914 73.550488 49.221157 73.882871 48.888774  C 74.215253 48.556391 74.40201 48.10552 74.40201 47.63546  C 74.40201 47.1654 74.215253 46.714529 73.882871 46.382146  C 73.550488 46.049763 73.099617 45.863006 72.629556 45.863006  C 72.159496 45.863006 71.708625 46.049763 71.376242 46.382146  C 71.043859 46.714529 70.857103 47.1654 70.857103 47.63546  C 70.857103 48.10552 71.043859 48.556391 71.376242 48.888774  C 71.708625 49.221157 72.159496 49.407914 72.629556 49.407914  z " clip-path="url(#p3f34f20632)" style="fill: #619cff; stroke: #619cff; stroke-width: 0.886227"/>
    <path d="M 244.648159 162.828679  C 245.118219 162.828679 245.56909 162.641922 245.901473 162.309539  C 246.233856 161.977156 246.420613 161.526285 246.420613 161.056225  C 246.420613 160.586165 246.233856 160.135294 245.901473 159.802911  C 245.56909 159.470528 245.118219 159.283771 244.648159 159.283771  C 244.178099 159.283771 243.727227 159.470528 243.394845 159.802911  C 243.062462 160.135294 242.875705 160.586165 242.875705 161.056225  C 242.875705 161.526285 243.062462 161.977156 243.394845 162.309539  C 243.727227 162.641922 244.178099 162.828679 244.648159 162.828679  z " clip-path="url(#p3f34f20632)" style="fill: #00ba38; stroke: #00ba38; stroke-width: 0.886227"/>
    <path d="M 218.057235 171.292915  C 218.527296 171.292915 218.978167 171.106159 219.31055 170.773776  C 219.642932 170.441393 219.829689 169.990522 219.829689 169.520462  C 219.829689 169.050401 219.642932 168.59953 219.31055 168.267147  C 218.978167 167.934765 218.527296 167.748008 218.057235 167.748008  C 217.587175 167.748008 217.136304 167.934765 216.803921 168.267147  C 216.471538 168.59953 216.284782 169.050401 216.284782 169.520462  C 216.284782 169.990522 216.471538 170.441393 216.803921 170.773776  C 217.136304 171.106159 217.587175 171.292915 218.057235 171.292915  z " clip-path="url(#p3f34f20632)" style="fill: #00ba38; stroke: #00ba38; stroke-width: 0.886227"/>
    <path d="M 167.342588 144.20736  C 167.812648 144.20736 168.263519 144.020604 168.595902 143.688221  C 168.928285 143.355838 169.115042 142.904967 169.115042 142.434907  C 169.115042 141.964846 168.928285 141.513975 168.595902 141.181593  C 168.263519 140.84921 167.812648 140.662453 167.342588 140.662453  C 166.872527 140.662453 166.421656 140.84921 166.089274 141.181593  C 165.756891 141.513975 165.570134 141.964846 165.570134 142.434907  C 165.570134 142.904967 165.756891 143.355838 166.089274 143.688221  C 166.421656 144.020604 166.872527 144.20736 167.342588 144.20736  z " clip-path="url(#p3f34f20632)" style="fill: #00ba38; stroke: #00ba38; stroke-width: 0.886227"/>
    <path d="M 290.017208 193.299934  C 290.487269 193.299934 290.93814 193.113177 291.270523 192.780794  C 291.602905 192.448411 291.789662 191.99754 291.789662 191.52748  C 291.789662 191.05742 291.602905 190.606548 291.270523 190.274166  C 290.93814 189.941783 290.487269 189.755026 290.017208 189.755026  C 289.547148 189.755026 289.096277 189.941783 288.763894 190.274166  C 288.431512 190.606548 288.244755 191.05742 288.244755 191.52748  C 288.244755 191.99754 288.431512 192.448411 288.763894 192.780794  C 289.096277 193.113177 289.547148 193.299934 290.017208 193.299934  z " clip-path="url(#p3f34f20632)" style="fill: #00ba38; stroke: #00ba38; stroke-width: 0.886227"/>
    <path d="M 264.385751 196.685628  C 264.855812 196.685628 265.306683 196.498871 265.639066 196.166489  C 265.971448 195.834106 266.158205 195.383235 266.158205 194.913174  C 266.158205 194.443114 265.971448 193.992243 265.639066 193.65986  C 265.306683 193.327477 264.855812 193.140721 264.385751 193.140721  C 263.915691 193.140721 263.46482 193.327477 263.132437 193.65986  C 262.800054 193.992243 262.613298 194.443114 262.613298 194.913174  C 262.613298 195.383235 262.800054 195.834106 263.132437 196.166489  C 263.46482 196.498871 263.915691 196.685628 264.385751 196.685628  z " clip-path="url(#p3f34f20632)" style="fill: #00ba38; stroke: #00ba38; stroke-width: 0.886227"/>
    <path d="M 289.880142 176.371461  C 290.350202 176.371461 290.801073 176.184704 291.133456 175.852321  C 291.465839 175.519938 291.652596 175.069067 291.652596 174.599007  C 291.652596 174.128947 291.465839 173.678076 291.133456 173.345693  C 290.801073 173.01331 290.350202 172.826553 289.880142 172.826553  C 289.410082 172.826553 288.959211 173.01331 288.626828 173.345693  C 288.294445 173.678076 288.107688 174.128947 288.107688 174.599007  C 288.107688 175.069067 288.294445 175.519938 288.626828 175.852321  C 288.959211 176.184704 289.410082 176.371461 289.880142 176.371461  z " clip-path="url(#p3f34f20632)" style="fill: #619cff; stroke: #619cff; stroke-width: 0.886227"/>
    <path d="M 219.702035 171.292915  C 220.172095 171.292915 220.622966 171.106159 220.955349 170.773776  C 221.287732 170.441393 221.474489 169.990522 221.474489 169.520462  C 221.474489 169.050401 221.287732 168.59953 220.955349 168.267147  C 220.622966 167.934765 220.172095 167.748008 219.702035 167.748008  C 219.231974 167.748008 218.781103 167.934765 218.448721 168.267147  C 218.116338 168.59953 217.929581 169.050401 217.929581 169.520462  C 217.929581 169.990522 218.116338 170.441393 218.448721 170.773776  C 218.781103 171.106159 219.231974 171.292915 219.702035 171.292915  z " clip-path="url(#p3f34f20632)" style="fill: #f8766d; stroke: #f8766d; stroke-width: 0.886227"/>
    <path d="M 283.849211 125.586042  C 284.319271 125.586042 284.770142 125.399285 285.102525 125.066902  C 285.434908 124.734519 285.621665 124.283648 285.621665 123.813588  C 285.621665 123.343528 285.434908 122.892657 285.102525 122.560274  C 284.770142 122.227891 284.319271 122.041134 283.849211 122.041134  C 283.379151 122.041134 282.928279 122.227891 282.595897 122.560274  C 282.263514 122.892657 282.076757 123.343528 282.076757 123.813588  C 282.076757 124.283648 282.263514 124.734519 282.595897 125.066902  C 282.928279 125.399285 283.379151 125.586042 283.849211 125.586042  z " clip-path="url(#p3f34f20632)" style="fill: #00ba38; stroke: #00ba38; stroke-width: 0.886227"/>
    <path d="M 243.825759 125.586042  C 244.295819 125.586042 244.74669 125.399285 245.079073 125.066902  C 245.411456 124.734519 245.598213 124.283648 245.598213 123.813588  C 245.598213 123.343528 245.411456 122.892657 245.079073 122.560274  C 244.74669 122.227891 244.295819 122.041134 243.825759 122.041134  C 243.355699 122.041134 242.904828 122.227891 242.572445 122.560274  C 242.240062 122.892657 242.053305 123.343528 242.053305 123.813588  C 242.053305 124.283648 242.240062 124.734519 242.572445 125.066902  C 242.904828 125.399285 243.355699 125.586042 243.825759 125.586042  z " clip-path="url(#p3f34f20632)" style="fill: #619cff; stroke: #619cff; stroke-width: 0.886227"/>
    <path d="M 172.002853 108.657569  C 172.472913 108.657569 172.923784 108.470812 173.256167 108.138429  C 173.58855 107.806047 173.775306 107.355175 173.775306 106.885115  C 173.775306 106.415055 173.58855 105.964184 173.256167 105.631801  C 172.923784 105.299418 172.472913 105.112661 172.002853 105.112661  C 171.532792 105.112661 171.081921 105.299418 170.749538 105.631801  C 170.417156 105.964184 170.230399 106.415055 170.230399 106.885115  C 170.230399 107.355175 170.417156 107.806047 170.749538 108.138429  C 171.081921 108.470812 171.532792 108.657569 172.002853 108.657569  z " clip-path="url(#p3f34f20632)" style="fill: #619cff; stroke: #619cff; stroke-width: 0.886227"/>
    <path d="M 185.983647 203.457016  C 186.453708 203.457016 186.904579 203.270259 187.236961 202.937876  C 187.569344 202.605493 187.756101 202.154622 187.756101 201.684562  C 187.756101 201.214502 187.569344 200.76363 187.236961 200.431248  C 186.904579 200.098865 186.453708 199.912108 185.983647 199.912108  C 185.513587 199.912108 185.062716 200.098865 184.730333 200.431248  C 184.39795 200.76363 184.211194 201.214502 184.211194 201.684562  C 184.211194 202.154622 184.39795 202.605493 184.730333 202.937876  C 185.062716 203.270259 185.513587 203.457016 185.983647 203.457016  z " clip-path="url(#p3f34f20632)" style="fill: #f8766d; stroke: #f8766d; stroke-width: 0.886227"/>
    <path d="M 91.544749 205.149865  C 92.01481 205.149865 92.465681 204.963108 92.798063 204.630725  C 93.130446 204.298342 93.317203 203.847471 93.317203 203.377411  C 93.317203 202.907351 93.130446 202.456479 92.798063 202.124097  C 92.465681 201.791714 92.01481 201.604957 91.544749 201.604957  C 91.074689 201.604957 90.623818 201.791714 90.291435 202.124097  C 89.959052 202.456479 89.772295 202.907351 89.772295 203.377411  C 89.772295 203.847471 89.959052 204.298342 90.291435 204.630725  C 90.623818 204.963108 91.074689 205.149865 91.544749 205.149865  z " clip-path="url(#p3f34f20632)" style="fill: #619cff; stroke: #619cff; stroke-width: 0.886227"/>
    <path d="M 103.195412 203.457016  C 103.665472 203.457016 104.116343 203.270259 104.448726 202.937876  C 104.781109 202.605493 104.967865 202.154622 104.967865 201.684562  C 104.967865 201.214502 104.781109 200.76363 104.448726 200.431248  C 104.116343 200.098865 103.665472 199.912108 103.195412 199.912108  C 102.725351 199.912108 102.27448 200.098865 101.942097 200.431248  C 101.609715 200.76363 101.422958 201.214502 101.422958 201.684562  C 101.422958 202.154622 101.609715 202.605493 101.942097 202.937876  C 102.27448 203.270259 102.725351 203.457016 103.195412 203.457016  z " clip-path="url(#p3f34f20632)" style="fill: #619cff; stroke: #619cff; stroke-width: 0.886227"/>
    <path d="M 118.546873 201.76417  C 119.016933 201.76417 119.467804 201.577413 119.800187 201.24503  C 120.132569 200.912648 120.319326 200.461776 120.319326 199.991716  C 120.319326 199.521656 120.132569 199.070785 119.800187 198.738402  C 119.467804 198.406019 119.016933 198.219262 118.546873 198.219262  C 118.076812 198.219262 117.625941 198.406019 117.293558 198.738402  C 116.961176 199.070785 116.774419 199.521656 116.774419 199.991716  C 116.774419 200.461776 116.961176 200.912648 117.293558 201.24503  C 117.625941 201.577413 118.076812 201.76417 118.546873 201.76417  z " clip-path="url(#p3f34f20632)" style="fill: #00ba38; stroke: #00ba38; stroke-width: 0.886227"/>
    <path d="M 183.927648 112.04326  C 184.397708 112.04326 184.848579 111.856503 185.180962 111.524121  C 185.513345 111.191738 185.700102 110.740867 185.700102 110.270806  C 185.700102 109.800746 185.513345 109.349875 185.180962 109.017492  C 184.848579 108.685109 184.397708 108.498353 183.927648 108.498353  C 183.457588 108.498353 183.006717 108.685109 182.674334 109.017492  C 182.341951 109.349875 182.155194 109.800746 182.155194 110.270806  C 182.155194 110.740867 182.341951 111.191738 182.674334 111.524121  C 183.006717 111.856503 183.457588 112.04326 183.927648 112.04326  z " clip-path="url(#p3f34f20632)" style="fill: #619cff; stroke: #619cff; stroke-width: 0.886227"/>
    <path d="M 140.066331 144.20736  C 140.536391 144.20736 140.987263 144.020604 141.319645 143.688221  C 141.652028 143.355838 141.838785 142.904967 141.838785 142.434907  C 141.838785 141.964846 141.652028 141.513975 141.319645 141.181593  C 140.987263 140.84921 140.536391 140.662453 140.066331 140.662453  C 139.596271 140.662453 139.1454 140.84921 138.813017 141.181593  C 138.480634 141.513975 138.293877 141.964846 138.293877 142.434907  C 138.293877 142.904967 138.480634 143.355838 138.813017 143.688221  C 139.1454 144.020604 139.596271 144.20736 140.066331 144.20736  z " clip-path="url(#p3f34f20632)" style="fill: #619cff; stroke: #619cff; stroke-width: 0.886227"/>
    <path d="M 206.95484 159.442988  C 207.4249 159.442988 207.875771 159.256231 208.208154 158.923848  C 208.540536 158.591465 208.727293 158.140594 208.727293 157.670534  C 208.727293 157.200474 208.540536 156.749603 208.208154 156.41722  C 207.875771 156.084837 207.4249 155.89808 206.95484 155.89808  C 206.484779 155.89808 206.033908 156.084837 205.701525 156.41722  C 205.369143 156.749603 205.182386 157.200474 205.182386 157.670534  C 205.182386 158.140594 205.369143 158.591465 205.701525 158.923848  C 206.033908 159.256231 206.484779 159.442988 206.95484 159.442988  z " clip-path="url(#p3f34f20632)" style="fill: #619cff; stroke: #619cff; stroke-width: 0.886227"/>
    <path d="M 288.372409 134.050278  C 288.842469 134.050278 289.29334 133.863522 289.625723 133.531139  C 289.958106 133.198756 290.144863 132.747885 290.144863 132.277825  C 290.144863 131.807764 289.958106 131.356893 289.625723 131.02451  C 289.29334 130.692128 288.842469 130.505371 288.372409 130.505371  C 287.902349 130.505371 287.451478 130.692128 287.119095 131.02451  C 286.786712 131.356893 286.599955 131.807764 286.599955 132.277825  C 286.599955 132.747885 286.786712 133.198756 287.119095 133.531139  C 287.451478 133.863522 287.902349 134.050278 288.372409 134.050278  z " clip-path="url(#p3f34f20632)" style="fill: #619cff; stroke: #619cff; stroke-width: 0.886227"/>
    <path d="M 194.892977 152.671597  C 195.363038 152.671597 195.813909 152.48484 196.146291 152.152457  C 196.478674 151.820074 196.665431 151.369203 196.665431 150.899143  C 196.665431 150.429083 196.478674 149.978212 196.146291 149.645829  C 195.813909 149.313446 195.363038 149.126689 194.892977 149.126689  C 194.422917 149.126689 193.972046 149.313446 193.639663 149.645829  C 193.30728 149.978212 193.120524 150.429083 193.120524 150.899143  C 193.120524 151.369203 193.30728 151.820074 193.639663 152.152457  C 193.972046 152.48484 194.422917 152.671597 194.892977 152.671597  z " clip-path="url(#p3f34f20632)" style="fill: #619cff; stroke: #619cff; stroke-width: 0.886227"/>
    <path d="M 72.08129 91.729096  C 72.55135 91.729096 73.002221 91.542339 73.334604 91.209956  C 73.666987 90.877574 73.853744 90.426703 73.853744 89.956642  C 73.853744 89.486582 73.666987 89.035711 73.334604 88.703328  C 73.002221 88.370945 72.55135 88.184188 72.08129 88.184188  C 71.61123 88.184188 71.160359 88.370945 70.827976 88.703328  C 70.495593 89.035711 70.308836 89.486582 70.308836 89.956642  C 70.308836 90.426703 70.495593 90.877574 70.827976 91.209956  C 71.160359 91.542339 71.61123 91.729096 72.08129 91.729096  z " clip-path="url(#p3f34f20632)" style="fill: #619cff; stroke: #619cff; stroke-width: 0.886227"/>
    <path d="M 246.704158 135.743124  C 247.174218 135.743124 247.625089 135.556367 247.957472 135.223984  C 248.289855 134.891602 248.476612 134.44073 248.476612 133.97067  C 248.476612 133.50061 248.289855 133.049739 247.957472 132.717356  C 247.625089 132.384973 247.174218 132.198216 246.704158 132.198216  C 246.234098 132.198216 245.783227 132.384973 245.450844 132.717356  C 245.118461 133.049739 244.931704 133.50061 244.931704 133.97067  C 244.931704 134.44073 245.118461 134.891602 245.450844 135.223984  C 245.783227 135.556367 246.234098 135.743124 246.704158 135.743124  z " clip-path="url(#p3f34f20632)" style="fill: #f8766d; stroke: #f8766d; stroke-width: 0.886227"/>
    <path d="M 188.999113 135.743124  C 189.469173 135.743124 189.920044 135.556367 190.252427 135.223984  C 190.58481 134.891602 190.771567 134.44073 190.771567 133.97067  C 190.771567 133.50061 190.58481 133.049739 190.252427 132.717356  C 189.920044 132.384973 189.469173 132.198216 188.999113 132.198216  C 188.529053 132.198216 188.078182 132.384973 187.745799 132.717356  C 187.413416 133.049739 187.226659 133.50061 187.226659 133.97067  C 187.226659 134.44073 187.413416 134.891602 187.745799 135.223984  C 188.078182 135.556367 188.529053 135.743124 188.999113 135.743124  z " clip-path="url(#p3f34f20632)" style="fill: #f8766d; stroke: #f8766d; stroke-width: 0.886227"/>
    <path d="M 169.26152 200.071324  C 169.731581 200.071324 170.182452 199.884568 170.514834 199.552185  C 170.847217 199.219802 171.033974 198.768931 171.033974 198.298871  C 171.033974 197.82881 170.847217 197.377939 170.514834 197.045557  C 170.182452 196.713174 169.731581 196.526417 169.26152 196.526417  C 168.79146 196.526417 168.340589 196.713174 168.008206 197.045557  C 167.675823 197.377939 167.489066 197.82881 167.489066 198.298871  C 167.489066 198.768931 167.675823 199.219802 168.008206 199.552185  C 168.340589 199.884568 168.79146 200.071324 169.26152 200.071324  z " clip-path="url(#p3f34f20632)" style="fill: #f8766d; stroke: #f8766d; stroke-width: 0.886227"/>
   </g>
   <g id="line2d_20">
    <path d="M 169.26152 194.046665  L 185.983647 184.692347  L 188.999113 183.167934  L 219.702035 166.571707  L 229.570831 163.104387  L 246.704158 153.827746  L 269.32015 135.762027  L 290.428408 120.100659  " clip-path="url(#p3f34f20632)" style="fill: none; stroke: #f8766d; stroke-width: 1.772454; stroke-linejoin: miter"/>
   </g>
   <g id="line2d_21">
    <path d="M 117.587406 138.800652  L 118.546873 138.503721  L 141.848197 133.363969  L 152.128193 132.525625  L 154.321259 132.490212  L 156.788458 132.524886  L 167.342588 134.149519  L 218.057235 161.946079  L 244.648159 163.231711  L 261.507352 162.814223  L 264.385751 162.76693  L 283.849211 162.518495  L 290.017208 162.446353  " clip-path="url(#p3f34f20632)" style="fill: none; stroke: #00ba38; stroke-width: 1.772454; stroke-linejoin: miter"/>
   </g>
   <g id="line2d_22">
    <path d="M 56.866896 65.202406  L 68.380491 75.58448  L 72.08129 78.849719  L 72.629556 79.330752  L 77.975154 83.987518  L 82.909553 88.239292  L 88.803417 93.264396  L 91.133549 95.236861  L 91.544749 95.584221  L 93.874882 97.548647  L 99.357546 102.142948  L 103.195412 105.335178  L 104.703144 106.584144  L 107.992743 109.298276  L 108.952209 110.086711  L 120.602872 119.412277  L 122.933004 121.158046  L 123.070071 121.258421  L 125.53727 123.012617  L 125.53727 123.012617  L 128.141536 124.679435  L 131.842334 126.83002  L 132.253534 127.072679  L 134.994866 128.518874  L 135.131933 128.564703  L 138.558598 129.886495  L 140.066331 130.528307  L 140.477531 130.702538  L 141.848197 131.277322  L 141.848197 131.277322  L 143.218863 131.796023  L 144.17833 132.152025  L 144.315396 132.204603  L 149.660994 134.401758  L 153.910059 136.031644  L 153.910059 136.031644  L 157.610858 137.382592  L 160.489257 138.548735  L 160.76339 138.654444  L 168.576187 141.374353  L 169.946853 141.805842  L 170.90632 142.093063  L 172.002853 142.405454  L 183.927648 145.325864  L 187.08018 146.090058  L 190.506846 147.065887  L 193.248178 147.857059  L 194.892977 148.333117  L 197.360176 149.073221  L 198.182576 149.312607  L 198.730843 149.480571  L 200.923908 150.140146  L 206.680706 151.834873  L 206.95484 151.915323  L 207.640173 152.097341  L 223.402833 151.294523  L 223.9511 151.255421  L 243.825759 150.733915  L 253.009222 150.706494  L 268.634816 150.694113  L 280.970812 150.645456  L 282.067345 150.637079  L 285.08281 150.609269  L 286.453476 150.593971  L 288.372409 150.569575  L 289.880142 150.548026  L 291.936141 150.515428  L 303.72387 150.260696  " clip-path="url(#p3f34f20632)" style="fill: none; stroke: #619cff; stroke-width: 1.772454; stroke-linejoin: miter"/>
   </g>
  </g>
  <g id="text_7">
   <!-- Mass (kg) -->
   <g transform="translate(153.732961 245.752344) scale(0.11 -0.11)">
    <defs>
     <path id="DejaVuSans-4d" d="M 628 4666  L 1569 4666  L 2759 1491  L 3956 4666  L 4897 4666  L 4897 0  L 4281 0  L 4281 4097  L 3078 897  L 2444 897  L 1241 4097  L 1241 0  L 628 0  L 628 4666  z " transform="scale(0.015625)"/>
     <path id="DejaVuSans-61" d="M 2194 1759  Q 1497 1759 1228 1600  Q 959 1441 959 1056  Q 959 750 1161 570  Q 1363 391 1709 391  Q 2188 391 2477 730  Q 2766 1069 2766 1631  L 2766 1759  L 2194 1759  z M 3341 1997  L 3341 0  L 2766 0  L 2766 531  Q 2569 213 2275 61  Q 1981 -91 1556 -91  Q 1019 -91 701 211  Q 384 513 384 1019  Q 384 1609 779 1909  Q 1175 2209 1959 2209  L 2766 2209  L 2766 2266  Q 2766 2663 2505 2880  Q 2244 3097 1772 3097  Q 1472 3097 1187 3025  Q 903 2953 641 2809  L 641 3341  Q 956 3463 1253 3523  Q 1550 3584 1831 3584  Q 2591 3584 2966 3190  Q 3341 2797 3341 1997  z " transform="scale(0.015625)"/>
     <path id="DejaVuSans-73" d="M 2834 3397  L 2834 2853  Q 2591 2978 2328 3040  Q 2066 3103 1784 3103  Q 1356 3103 1142 2972  Q 928 2841 928 2578  Q 928 2378 1081 2264  Q 1234 2150 1697 2047  L 1894 2003  Q 2506 1872 2764 1633  Q 3022 1394 3022 966  Q 3022 478 2636 193  Q 2250 -91 1575 -91  Q 1294 -91 989 -36  Q 684 19 347 128  L 347 722  Q 666 556 975 473  Q 1284 391 1588 391  Q 1994 391 2212 530  Q 2431 669 2431 922  Q 2431 1156 2273 1281  Q 2116 1406 1581 1522  L 1381 1569  Q 847 1681 609 1914  Q 372 2147 372 2553  Q 372 3047 722 3315  Q 1072 3584 1716 3584  Q 2034 3584 2315 3537  Q 2597 3491 2834 3397  z " transform="scale(0.015625)"/>
     <path id="DejaVuSans-20" transform="scale(0.015625)"/>
     <path id="DejaVuSans-28" d="M 1984 4856  Q 1566 4138 1362 3434  Q 1159 2731 1159 2009  Q 1159 1288 1364 580  Q 1569 -128 1984 -844  L 1484 -844  Q 1016 -109 783 600  Q 550 1309 550 2009  Q 550 2706 781 3412  Q 1013 4119 1484 4856  L 1984 4856  z " transform="scale(0.015625)"/>
     <path id="DejaVuSans-6b" d="M 581 4863  L 1159 4863  L 1159 1991  L 2875 3500  L 3609 3500  L 1753 1863  L 3688 0  L 2938 0  L 1159 1709  L 1159 0  L 581 0  L 581 4863  z " transform="scale(0.015625)"/>
     <path id="DejaVuSans-67" d="M 2906 1791  Q 2906 2416 2648 2759  Q 2391 3103 1925 3103  Q 1463 3103 1205 2759  Q 947 2416 947 1791  Q 947 1169 1205 825  Q 1463 481 1925 481  Q 2391 481 2648 825  Q 2906 1169 2906 1791  z M 3481 434  Q 3481 -459 3084 -895  Q 2688 -1331 1869 -1331  Q 1566 -1331 1297 -1286  Q 1028 -1241 775 -1147  L 775 -588  Q 1028 -725 1275 -790  Q 1522 -856 1778 -856  Q 2344 -856 2625 -561  Q 2906 -266 2906 331  L 2906 616  Q 2728 306 2450 153  Q 2172 0 1784 0  Q 1141 0 747 490  Q 353 981 353 1791  Q 353 2603 747 3093  Q 1141 3584 1784 3584  Q 2172 3584 2450 3431  Q 2728 3278 2906 2969  L 2906 3500  L 3481 3500  L 3481 434  z " transform="scale(0.015625)"/>
     <path id="DejaVuSans-29" d="M 513 4856  L 1013 4856  Q 1481 4119 1714 3412  Q 1947 2706 1947 2009  Q 1947 1309 1714 600  Q 1481 -109 1013 -844  L 513 -844  Q 928 -128 1133 580  Q 1338 1288 1338 2009  Q 1338 2731 1133 3434  Q 928 4138 513 4856  z " transform="scale(0.015625)"/>
    </defs>
    <use xlink:href="#DejaVuSans-4d"/>
    <use xlink:href="#DejaVuSans-61" transform="translate(86.279297 0)"/>
    <use xlink:href="#DejaVuSans-73" transform="translate(147.558594 0)"/>
    <use xlink:href="#DejaVuSans-73" transform="translate(199.658203 0)"/>
    <use xlink:href="#DejaVuSans-20" transform="translate(251.757812 0)"/>
    <use xlink:href="#DejaVuSans-28" transform="translate(283.544922 0)"/>
    <use xlink:href="#DejaVuSans-6b" transform="translate(322.558594 0)"/>
    <use xlink:href="#DejaVuSans-67" transform="translate(380.46875 0)"/>
    <use xlink:href="#DejaVuSans-29" transform="translate(443.945312 0)"/>
   </g>
  </g>
  <g id="text_8">
   <!-- Time to 100km/h  -->
   <g transform="translate(12.318281 160.56475) rotate(-90) scale(0.11 -0.11)">
    <defs>
     <path id="DejaVuSans-54" d="M -19 4666  L 3928 4666  L 3928 4134  L 2272 4134  L 2272 0  L 1638 0  L 1638 4134  L -19 4134  L -19 4666  z " transform="scale(0.015625)"/>
     <path id="DejaVuSans-69" d="M 603 3500  L 1178 3500  L 1178 0  L 603 0  L 603 3500  z M 603 4863  L 1178 4863  L 1178 4134  L 603 4134  L 603 4863  z " transform="scale(0.015625)"/>
     <path id="DejaVuSans-6d" d="M 3328 2828  Q 3544 3216 3844 3400  Q 4144 3584 4550 3584  Q 5097 3584 5394 3201  Q 5691 2819 5691 2113  L 5691 0  L 5113 0  L 5113 2094  Q 5113 2597 4934 2840  Q 4756 3084 4391 3084  Q 3944 3084 3684 2787  Q 3425 2491 3425 1978  L 3425 0  L 2847 0  L 2847 2094  Q 2847 2600 2669 2842  Q 2491 3084 2119 3084  Q 1678 3084 1418 2786  Q 1159 2488 1159 1978  L 1159 0  L 581 0  L 581 3500  L 1159 3500  L 1159 2956  Q 1356 3278 1631 3431  Q 1906 3584 2284 3584  Q 2666 3584 2933 3390  Q 3200 3197 3328 2828  z " transform="scale(0.015625)"/>
     <path id="DejaVuSans-65" d="M 3597 1894  L 3597 1613  L 953 1613  Q 991 1019 1311 708  Q 1631 397 2203 397  Q 2534 397 2845 478  Q 3156 559 3463 722  L 3463 178  Q 3153 47 2828 -22  Q 2503 -91 2169 -91  Q 1331 -91 842 396  Q 353 884 353 1716  Q 353 2575 817 3079  Q 1281 3584 2069 3584  Q 2775 3584 3186 3129  Q 3597 2675 3597 1894  z M 3022 2063  Q 3016 2534 2758 2815  Q 2500 3097 2075 3097  Q 1594 3097 1305 2825  Q 1016 2553 972 2059  L 3022 2063  z " transform="scale(0.015625)"/>
     <path id="DejaVuSans-74" d="M 1172 4494  L 1172 3500  L 2356 3500  L 2356 3053  L 1172 3053  L 1172 1153  Q 1172 725 1289 603  Q 1406 481 1766 481  L 2356 481  L 2356 0  L 1766 0  Q 1100 0 847 248  Q 594 497 594 1153  L 594 3053  L 172 3053  L 172 3500  L 594 3500  L 594 4494  L 1172 4494  z " transform="scale(0.015625)"/>
     <path id="DejaVuSans-6f" d="M 1959 3097  Q 1497 3097 1228 2736  Q 959 2375 959 1747  Q 959 1119 1226 758  Q 1494 397 1959 397  Q 2419 397 2687 759  Q 2956 1122 2956 1747  Q 2956 2369 2687 2733  Q 2419 3097 1959 3097  z M 1959 3584  Q 2709 3584 3137 3096  Q 3566 2609 3566 1747  Q 3566 888 3137 398  Q 2709 -91 1959 -91  Q 1206 -91 779 398  Q 353 888 353 1747  Q 353 2609 779 3096  Q 1206 3584 1959 3584  z " transform="scale(0.015625)"/>
     <path id="DejaVuSans-2f" d="M 1625 4666  L 2156 4666  L 531 -594  L 0 -594  L 1625 4666  z " transform="scale(0.015625)"/>
     <path id="DejaVuSans-68" d="M 3513 2113  L 3513 0  L 2938 0  L 2938 2094  Q 2938 2591 2744 2837  Q 2550 3084 2163 3084  Q 1697 3084 1428 2787  Q 1159 2491 1159 1978  L 1159 0  L 581 0  L 581 4863  L 1159 4863  L 1159 2956  Q 1366 3272 1645 3428  Q 1925 3584 2291 3584  Q 2894 3584 3203 3211  Q 3513 2838 3513 2113  z " transform="scale(0.015625)"/>
    </defs>
    <use xlink:href="#DejaVuSans-54"/>
    <use xlink:href="#DejaVuSans-69" transform="translate(57.958984 0)"/>
    <use xlink:href="#DejaVuSans-6d" transform="translate(85.742188 0)"/>
    <use xlink:href="#DejaVuSans-65" transform="translate(183.154297 0)"/>
    <use xlink:href="#DejaVuSans-20" transform="translate(244.677734 0)"/>
    <use xlink:href="#DejaVuSans-74" transform="translate(276.464844 0)"/>
    <use xlink:href="#DejaVuSans-6f" transform="translate(315.673828 0)"/>
    <use xlink:href="#DejaVuSans-20" transform="translate(376.855469 0)"/>
    <use xlink:href="#DejaVuSans-31" transform="translate(408.642578 0)"/>
    <use xlink:href="#DejaVuSans-30" transform="translate(472.265625 0)"/>
    <use xlink:href="#DejaVuSans-30" transform="translate(535.888672 0)"/>
    <use xlink:href="#DejaVuSans-6b" transform="translate(599.511719 0)"/>
    <use xlink:href="#DejaVuSans-6d" transform="translate(657.421875 0)"/>
    <use xlink:href="#DejaVuSans-2f" transform="translate(754.833984 0)"/>
    <use xlink:href="#DejaVuSans-68" transform="translate(788.525391 0)"/>
    <use xlink:href="#DejaVuSans-20" transform="translate(851.904297 0)"/>
   </g>
   <!-- (seconds) -->
   <g transform="translate(22.128391 138.736625) rotate(-90) scale(0.11 -0.11)">
    <defs>
     <path id="DejaVuSans-63" d="M 3122 3366  L 3122 2828  Q 2878 2963 2633 3030  Q 2388 3097 2138 3097  Q 1578 3097 1268 2742  Q 959 2388 959 1747  Q 959 1106 1268 751  Q 1578 397 2138 397  Q 2388 397 2633 464  Q 2878 531 3122 666  L 3122 134  Q 2881 22 2623 -34  Q 2366 -91 2075 -91  Q 1284 -91 818 406  Q 353 903 353 1747  Q 353 2603 823 3093  Q 1294 3584 2113 3584  Q 2378 3584 2631 3529  Q 2884 3475 3122 3366  z " transform="scale(0.015625)"/>
     <path id="DejaVuSans-6e" d="M 3513 2113  L 3513 0  L 2938 0  L 2938 2094  Q 2938 2591 2744 2837  Q 2550 3084 2163 3084  Q 1697 3084 1428 2787  Q 1159 2491 1159 1978  L 1159 0  L 581 0  L 581 3500  L 1159 3500  L 1159 2956  Q 1366 3272 1645 3428  Q 1925 3584 2291 3584  Q 2894 3584 3203 3211  Q 3513 2838 3513 2113  z " transform="scale(0.015625)"/>
     <path id="DejaVuSans-64" d="M 2906 2969  L 2906 4863  L 3481 4863  L 3481 0  L 2906 0  L 2906 525  Q 2725 213 2448 61  Q 2172 -91 1784 -91  Q 1150 -91 751 415  Q 353 922 353 1747  Q 353 2572 751 3078  Q 1150 3584 1784 3584  Q 2172 3584 2448 3432  Q 2725 3281 2906 2969  z M 947 1747  Q 947 1113 1208 752  Q 1469 391 1925 391  Q 2381 391 2643 752  Q 2906 1113 2906 1747  Q 2906 2381 2643 2742  Q 2381 3103 1925 3103  Q 1469 3103 1208 2742  Q 947 2381 947 1747  z " transform="scale(0.015625)"/>
    </defs>
    <use xlink:href="#DejaVuSans-28"/>
    <use xlink:href="#DejaVuSans-73" transform="translate(39.013672 0)"/>
    <use xlink:href="#DejaVuSans-65" transform="translate(91.113281 0)"/>
    <use xlink:href="#DejaVuSans-63" transform="translate(152.636719 0)"/>
    <use xlink:href="#DejaVuSans-6f" transform="translate(207.617188 0)"/>
    <use xlink:href="#DejaVuSans-6e" transform="translate(268.798828 0)"/>
    <use xlink:href="#DejaVuSans-64" transform="translate(332.177734 0)"/>
    <use xlink:href="#DejaVuSans-73" transform="translate(395.654297 0)"/>
    <use xlink:href="#DejaVuSans-29" transform="translate(447.753906 0)"/>
   </g>
  </g>
  <g id="patch_4">
   <path d="M 327.946719 144.676625  L 392.04 144.676625  L 392.04 79.250687  L 327.946719 79.250687  z " style="fill: #ffffff"/>
  </g>
  <g id="text_9">
   <!-- enginetype -->
   <g transform="translate(328.946719 88.608969) scale(0.11 -0.11)">
    <defs>
     <path id="DejaVuSans-79" d="M 2059 -325  Q 1816 -950 1584 -1140  Q 1353 -1331 966 -1331  L 506 -1331  L 506 -850  L 844 -850  Q 1081 -850 1212 -737  Q 1344 -625 1503 -206  L 1606 56  L 191 3500  L 800 3500  L 1894 763  L 2988 3500  L 3597 3500  L 2059 -325  z " transform="scale(0.015625)"/>
     <path id="DejaVuSans-70" d="M 1159 525  L 1159 -1331  L 581 -1331  L 581 3500  L 1159 3500  L 1159 2969  Q 1341 3281 1617 3432  Q 1894 3584 2278 3584  Q 2916 3584 3314 3078  Q 3713 2572 3713 1747  Q 3713 922 3314 415  Q 2916 -91 2278 -91  Q 1894 -91 1617 61  Q 1341 213 1159 525  z M 3116 1747  Q 3116 2381 2855 2742  Q 2594 3103 2138 3103  Q 1681 3103 1420 2742  Q 1159 2381 1159 1747  Q 1159 1113 1420 752  Q 1681 391 2138 391  Q 2594 391 2855 752  Q 3116 1113 3116 1747  z " transform="scale(0.015625)"/>
    </defs>
    <use xlink:href="#DejaVuSans-65"/>
    <use xlink:href="#DejaVuSans-6e" transform="translate(61.523438 0)"/>
    <use xlink:href="#DejaVuSans-67" transform="translate(124.902344 0)"/>
    <use xlink:href="#DejaVuSans-69" transform="translate(188.378906 0)"/>
    <use xlink:href="#DejaVuSans-6e" transform="translate(216.162109 0)"/>
    <use xlink:href="#DejaVuSans-65" transform="translate(279.541016 0)"/>
    <use xlink:href="#DejaVuSans-74" transform="translate(341.064453 0)"/>
    <use xlink:href="#DejaVuSans-79" transform="translate(380.273438 0)"/>
    <use xlink:href="#DejaVuSans-70" transform="translate(439.453125 0)"/>
    <use xlink:href="#DejaVuSans-65" transform="translate(502.929688 0)"/>
   </g>
  </g>
  <g id="patch_5">
   <path d="M 328.946719 107.996625  L 344.786719 107.996625  L 344.786719 92.156625  L 328.946719 92.156625  z " clip-path="url(#p16dc226274)" style="fill: #ebebeb"/>
  </g>
  <g id="line2d_23">
   <path d="M 336.866719 100.076625  " clip-path="url(#p16dc226274)" style="fill: none; stroke: #1f77b4; stroke-width: 1.5; stroke-linecap: square"/>
   <defs>
    <path id="mfd9072f0cf" d="M 0 1.772454  C 0.47006 1.772454 0.920931 1.585697 1.253314 1.253314  C 1.585697 0.920931 1.772454 0.47006 1.772454 0  C 1.772454 -0.47006 1.585697 -0.920931 1.253314 -1.253314  C 0.920931 -1.585697 0.47006 -1.772454 0 -1.772454  C -0.47006 -1.772454 -0.920931 -1.585697 -1.253314 -1.253314  C -1.585697 -0.920931 -1.772454 -0.47006 -1.772454 0  C -1.772454 0.47006 -1.585697 0.920931 -1.253314 1.253314  C -0.920931 1.585697 -0.47006 1.772454 0 1.772454  z " style="stroke: #f8766d; stroke-width: 0.886227"/>
   </defs>
   <g clip-path="url(#p16dc226274)">
    <use xlink:href="#mfd9072f0cf" x="336.866719" y="100.076625" style="fill: #f8766d; stroke: #f8766d; stroke-width: 0.886227"/>
   </g>
  </g>
  <g id="patch_6">
   <path d="M 328.946719 104.036625  L 344.786719 104.036625  L 344.786719 96.116625  L 328.946719 96.116625  z " clip-path="url(#p16dc226274)" style="fill: #999999; fill-opacity: 0.4"/>
  </g>
  <g id="line2d_24">
   <path d="M 328.946719 100.076625  L 344.786719 100.076625  " clip-path="url(#p16dc226274)" style="fill: none; stroke: #f8766d; stroke-width: 1.772454"/>
  </g>
  <g id="text_10">
   <!-- Electric -->
   <g transform="translate(347.426719 102.504875) scale(0.088 -0.088)">
    <defs>
     <path id="DejaVuSans-45" d="M 628 4666  L 3578 4666  L 3578 4134  L 1259 4134  L 1259 2753  L 3481 2753  L 3481 2222  L 1259 2222  L 1259 531  L 3634 531  L 3634 0  L 628 0  L 628 4666  z " transform="scale(0.015625)"/>
     <path id="DejaVuSans-6c" d="M 603 4863  L 1178 4863  L 1178 0  L 603 0  L 603 4863  z " transform="scale(0.015625)"/>
     <path id="DejaVuSans-72" d="M 2631 2963  Q 2534 3019 2420 3045  Q 2306 3072 2169 3072  Q 1681 3072 1420 2755  Q 1159 2438 1159 1844  L 1159 0  L 581 0  L 581 3500  L 1159 3500  L 1159 2956  Q 1341 3275 1631 3429  Q 1922 3584 2338 3584  Q 2397 3584 2469 3576  Q 2541 3569 2628 3553  L 2631 2963  z " transform="scale(0.015625)"/>
    </defs>
    <use xlink:href="#DejaVuSans-45"/>
    <use xlink:href="#DejaVuSans-6c" transform="translate(63.183594 0)"/>
    <use xlink:href="#DejaVuSans-65" transform="translate(90.966797 0)"/>
    <use xlink:href="#DejaVuSans-63" transform="translate(152.490234 0)"/>
    <use xlink:href="#DejaVuSans-74" transform="translate(207.470703 0)"/>
    <use xlink:href="#DejaVuSans-72" transform="translate(246.679688 0)"/>
    <use xlink:href="#DejaVuSans-69" transform="translate(287.792969 0)"/>
    <use xlink:href="#DejaVuSans-63" transform="translate(315.576172 0)"/>
   </g>
  </g>
  <g id="patch_7">
   <path d="M 328.946719 125.836625  L 344.786719 125.836625  L 344.786719 109.996625  L 328.946719 109.996625  z " clip-path="url(#pa20aeb2a90)" style="fill: #ebebeb"/>
  </g>
  <g id="line2d_25">
   <path d="M 336.866719 117.916625  " clip-path="url(#pa20aeb2a90)" style="fill: none; stroke: #1f77b4; stroke-width: 1.5; stroke-linecap: square"/>
   <defs>
    <path id="m8df7205159" d="M 0 1.772454  C 0.47006 1.772454 0.920931 1.585697 1.253314 1.253314  C 1.585697 0.920931 1.772454 0.47006 1.772454 0  C 1.772454 -0.47006 1.585697 -0.920931 1.253314 -1.253314  C 0.920931 -1.585697 0.47006 -1.772454 0 -1.772454  C -0.47006 -1.772454 -0.920931 -1.585697 -1.253314 -1.253314  C -1.585697 -0.920931 -1.772454 -0.47006 -1.772454 0  C -1.772454 0.47006 -1.585697 0.920931 -1.253314 1.253314  C -0.920931 1.585697 -0.47006 1.772454 0 1.772454  z " style="stroke: #00ba38; stroke-width: 0.886227"/>
   </defs>
   <g clip-path="url(#pa20aeb2a90)">
    <use xlink:href="#m8df7205159" x="336.866719" y="117.916625" style="fill: #00ba38; stroke: #00ba38; stroke-width: 0.886227"/>
   </g>
  </g>
  <g id="patch_8">
   <path d="M 328.946719 121.876625  L 344.786719 121.876625  L 344.786719 113.956625  L 328.946719 113.956625  z " clip-path="url(#pa20aeb2a90)" style="fill: #999999; fill-opacity: 0.4"/>
  </g>
  <g id="line2d_26">
   <path d="M 328.946719 117.916625  L 344.786719 117.916625  " clip-path="url(#pa20aeb2a90)" style="fill: none; stroke: #00ba38; stroke-width: 1.772454"/>
  </g>
  <g id="text_11">
   <!-- Hybrid -->
   <g transform="translate(347.426719 120.344875) scale(0.088 -0.088)">
    <defs>
     <path id="DejaVuSans-48" d="M 628 4666  L 1259 4666  L 1259 2753  L 3553 2753  L 3553 4666  L 4184 4666  L 4184 0  L 3553 0  L 3553 2222  L 1259 2222  L 1259 0  L 628 0  L 628 4666  z " transform="scale(0.015625)"/>
     <path id="DejaVuSans-62" d="M 3116 1747  Q 3116 2381 2855 2742  Q 2594 3103 2138 3103  Q 1681 3103 1420 2742  Q 1159 2381 1159 1747  Q 1159 1113 1420 752  Q 1681 391 2138 391  Q 2594 391 2855 752  Q 3116 1113 3116 1747  z M 1159 2969  Q 1341 3281 1617 3432  Q 1894 3584 2278 3584  Q 2916 3584 3314 3078  Q 3713 2572 3713 1747  Q 3713 922 3314 415  Q 2916 -91 2278 -91  Q 1894 -91 1617 61  Q 1341 213 1159 525  L 1159 0  L 581 0  L 581 4863  L 1159 4863  L 1159 2969  z " transform="scale(0.015625)"/>
    </defs>
    <use xlink:href="#DejaVuSans-48"/>
    <use xlink:href="#DejaVuSans-79" transform="translate(75.195312 0)"/>
    <use xlink:href="#DejaVuSans-62" transform="translate(134.375 0)"/>
    <use xlink:href="#DejaVuSans-72" transform="translate(197.851562 0)"/>
    <use xlink:href="#DejaVuSans-69" transform="translate(238.964844 0)"/>
    <use xlink:href="#DejaVuSans-64" transform="translate(266.748047 0)"/>
   </g>
  </g>
  <g id="patch_9">
   <path d="M 328.946719 143.676625  L 344.786719 143.676625  L 344.786719 127.836625  L 328.946719 127.836625  z " clip-path="url(#p6323d889ad)" style="fill: #ebebeb"/>
  </g>
  <g id="line2d_27">
   <path d="M 336.866719 135.756625  " clip-path="url(#p6323d889ad)" style="fill: none; stroke: #1f77b4; stroke-width: 1.5; stroke-linecap: square"/>
   <defs>
    <path id="m1bbb676a78" d="M 0 1.772454  C 0.47006 1.772454 0.920931 1.585697 1.253314 1.253314  C 1.585697 0.920931 1.772454 0.47006 1.772454 0  C 1.772454 -0.47006 1.585697 -0.920931 1.253314 -1.253314  C 0.920931 -1.585697 0.47006 -1.772454 0 -1.772454  C -0.47006 -1.772454 -0.920931 -1.585697 -1.253314 -1.253314  C -1.585697 -0.920931 -1.772454 -0.47006 -1.772454 0  C -1.772454 0.47006 -1.585697 0.920931 -1.253314 1.253314  C -0.920931 1.585697 -0.47006 1.772454 0 1.772454  z " style="stroke: #619cff; stroke-width: 0.886227"/>
   </defs>
   <g clip-path="url(#p6323d889ad)">
    <use xlink:href="#m1bbb676a78" x="336.866719" y="135.756625" style="fill: #619cff; stroke: #619cff; stroke-width: 0.886227"/>
   </g>
  </g>
  <g id="patch_10">
   <path d="M 328.946719 139.716625  L 344.786719 139.716625  L 344.786719 131.796625  L 328.946719 131.796625  z " clip-path="url(#p6323d889ad)" style="fill: #999999; fill-opacity: 0.4"/>
  </g>
  <g id="line2d_28">
   <path d="M 328.946719 135.756625  L 344.786719 135.756625  " clip-path="url(#p6323d889ad)" style="fill: none; stroke: #619cff; stroke-width: 1.772454"/>
  </g>
  <g id="text_12">
   <!-- Petrol -->
   <g transform="translate(347.426719 138.184875) scale(0.088 -0.088)">
    <defs>
     <path id="DejaVuSans-50" d="M 1259 4147  L 1259 2394  L 2053 2394  Q 2494 2394 2734 2622  Q 2975 2850 2975 3272  Q 2975 3691 2734 3919  Q 2494 4147 2053 4147  L 1259 4147  z M 628 4666  L 2053 4666  Q 2838 4666 3239 4311  Q 3641 3956 3641 3272  Q 3641 2581 3239 2228  Q 2838 1875 2053 1875  L 1259 1875  L 1259 0  L 628 0  L 628 4666  z " transform="scale(0.015625)"/>
    </defs>
    <use xlink:href="#DejaVuSans-50"/>
    <use xlink:href="#DejaVuSans-65" transform="translate(56.677734 0)"/>
    <use xlink:href="#DejaVuSans-74" transform="translate(118.201172 0)"/>
    <use xlink:href="#DejaVuSans-72" transform="translate(157.410156 0)"/>
    <use xlink:href="#DejaVuSans-6f" transform="translate(196.273438 0)"/>
    <use xlink:href="#DejaVuSans-6c" transform="translate(257.455078 0)"/>
   </g>
  </g>
 </g>
 <defs>
  <clipPath id="p3f34f20632">
   <rect x="44.524047" y="3.96" width="271.542672" height="216.007313"/>
  </clipPath>
  <clipPath id="p16dc226274">
   <path d="M 328.946719 107.996625  L 328.946719 92.156625  L 344.786719 92.156625  L 344.786719 107.996625  "/>
  </clipPath>
  <clipPath id="pa20aeb2a90">
   <path d="M 328.946719 125.836625  L 328.946719 109.996625  L 344.786719 109.996625  L 344.786719 125.836625  "/>
  </clipPath>
  <clipPath id="p6323d889ad">
   <path d="M 328.946719 143.676625  L 328.946719 127.836625  L 344.786719 127.836625  L 344.786719 143.676625  "/>
  </clipPath>
 </defs>
</svg>